<?xml version="1.0" standalone="no"?>
<!DOCTYPE svg PUBLIC "-//W3C//DTD SVG 20010904//EN"
 "http://www.w3.org/TR/2001/REC-SVG-20010904/DTD/svg10.dtd">
<svg version="1.0" xmlns="http://www.w3.org/2000/svg"
 width="384.000000pt" height="384.000000pt" viewBox="0 0 384.000000 384.000000"
 preserveAspectRatio="xMidYMid meet">
<metadata>
Created by potrace 1.14, written by Peter Selinger 2001-2017
</metadata>
<g transform="translate(0.000000,384.000000) scale(0.100000,-0.100000)"
fill="#000000" stroke="none">
<path d="M1775 3834 c-27 -3 -106 -14 -174 -25 -716 -119 -1312 -647 -1520
-1349 -101 -340 -101 -740 0 -1080 84 -284 231 -541 447 -777 81 -90 113 -115
120 -94 2 7 16 -8 32 -32 15 -24 58 -66 96 -93 94 -68 95 -69 106 -53 7 11 8
9 6 -6 -2 -13 4 -21 17 -23 11 -2 23 -10 27 -17 4 -7 26 -22 49 -34 22 -12 38
-17 35 -12 -4 5 -1 13 5 17 8 4 9 3 5 -4 -4 -7 0 -12 11 -13 12 0 13 -2 5 -6
-17 -6 23 -32 88 -56 l45 -18 -38 36 c-21 20 -35 40 -32 45 3 5 1 11 -5 15 -5
3 -10 15 -10 27 0 18 4 19 35 14 41 -8 46 0 8 15 -22 8 -30 6 -53 -16 -27 -26
-50 -33 -50 -15 0 6 -7 10 -16 10 -8 0 -12 5 -9 10 4 6 15 8 26 5 10 -4 19 -2
19 3 0 5 -15 8 -32 8 -26 -2 -33 -6 -32 -22 0 -13 -7 -21 -19 -21 -12 -1 -17
3 -13 13 3 8 1 14 -4 14 -6 0 -10 5 -10 11 0 5 5 7 11 3 8 -4 9 1 4 16 -8 26
7 40 45 40 18 0 21 -3 11 -9 -18 -12 0 -21 27 -14 25 6 30 33 6 33 -9 0 -12 5
-8 12 5 8 2 9 -9 5 -10 -4 -17 -2 -17 4 0 12 34 6 83 -13 29 -11 35 -23 15
-31 -8 -3 -6 -6 5 -6 19 -1 24 28 7 45 -7 7 -5 11 7 11 10 -1 32 1 48 2 29 3
29 3 5 10 -16 4 -21 9 -13 14 7 5 21 -1 33 -13 11 -11 32 -20 46 -20 21 0 23
-2 12 -12 -25 -24 -52 -43 -45 -32 4 7 -6 10 -28 10 -19 -1 -35 -5 -35 -10 0
-5 -8 -15 -17 -23 -17 -13 -16 -13 6 -7 16 4 21 3 17 -5 -4 -6 0 -11 9 -11 9
0 13 4 10 10 -3 5 -1 10 5 10 13 0 86 -69 83 -79 -1 -4 8 -8 20 -8 22 -2 22
-2 -2 18 -33 27 -21 54 20 45 26 -5 30 -3 25 10 -5 12 -1 14 17 9 21 -7 21 -6
5 11 -14 15 -19 15 -33 4 -21 -17 -56 -21 -73 -7 -10 8 -9 14 4 28 17 19 50
27 40 10 -3 -5 1 -12 10 -15 22 -8 26 -8 19 4 -3 6 2 10 12 10 10 0 24 4 32 9
11 7 7 13 -20 25 l-34 15 35 -1 c23 -1 42 -10 56 -26 15 -18 26 -23 42 -18 12
4 22 12 22 17 0 5 -9 4 -20 -3 -17 -11 -22 -10 -30 2 -5 8 -6 18 -4 22 3 5 -3
11 -13 15 -10 3 -26 13 -35 21 -16 14 -18 13 -18 -1 0 -10 -6 -17 -14 -17 -26
0 -46 12 -46 27 0 8 -5 11 -10 8 -6 -3 -10 -2 -10 3 0 13 102 13 119 -1 12
-10 13 -9 6 3 -7 12 -5 12 11 -1 10 -9 34 -17 53 -17 l33 -1 -20 20 c-12 10
-29 19 -38 19 -10 0 -26 8 -36 17 -15 14 -23 15 -37 6 -15 -9 -23 -9 -37 1 -9
7 -26 11 -36 8 -10 -2 -18 1 -18 7 0 7 5 9 11 5 6 -3 15 -1 19 6 6 9 12 9 29
0 26 -14 43 -10 33 7 -5 7 -20 14 -34 15 -15 1 -24 6 -22 10 3 4 1 8 -4 8 -6
0 -12 -7 -16 -15 -3 -8 -14 -15 -25 -15 -11 0 -23 -5 -27 -12 -5 -7 -10 -4
-15 10 -5 13 -17 22 -30 22 -17 0 -19 -3 -10 -14 9 -11 9 -15 -1 -19 -10 -3
-8 -10 6 -26 15 -16 27 -20 46 -16 25 5 27 3 28 -25 l1 -31 -18 22 c-12 15
-20 19 -25 11 -4 -7 -2 -12 3 -12 6 0 11 -4 11 -9 0 -9 -114 -6 -164 5 -23 5
-28 3 -23 -9 4 -11 -3 -19 -24 -26 -16 -5 -32 -17 -35 -26 -3 -8 -15 -15 -25
-15 -12 0 -16 5 -13 15 4 10 0 15 -11 15 -15 0 -15 1 0 16 8 9 22 13 30 10 12
-4 13 -2 5 13 -7 14 -6 20 6 25 13 5 12 9 -5 28 -12 12 -21 25 -21 30 0 4 -10
8 -22 8 -20 0 -20 1 -5 18 10 10 17 24 17 30 0 7 5 12 10 12 6 0 10 4 10 8 0
5 -14 7 -30 4 -18 -3 -30 0 -30 7 0 6 9 11 20 11 23 0 26 13 7 28 -19 15 -58
-3 -50 -24 5 -14 1 -15 -36 -9 -36 6 -40 5 -34 -11 4 -11 3 -15 -5 -10 -14 9
-11 44 5 50 6 3 22 3 35 1 22 -4 22 -4 4 10 -17 13 -17 15 -4 15 9 0 20 5 24
12 4 7 3 8 -5 4 -6 -4 -18 -1 -26 8 -16 15 -4 33 15 21 6 -3 10 1 10 10 0 11
-5 15 -15 11 -8 -3 -15 -1 -15 4 0 5 -11 12 -25 16 -14 3 -25 8 -25 11 0 14
33 34 50 30 12 -3 17 0 13 9 -2 7 -12 10 -20 7 -13 -5 -15 -2 -11 15 4 15 0
25 -10 31 -9 5 -14 13 -10 16 11 11 40 -23 32 -37 -5 -7 -2 -9 7 -6 19 7 79
-17 79 -32 0 -13 -17 -13 -25 0 -3 6 -10 10 -15 10 -16 0 1 -28 27 -45 14 -10
23 -12 19 -7 -3 6 4 13 16 17 13 4 43 16 67 26 39 18 45 19 60 5 10 -9 23 -16
29 -16 7 0 12 -4 12 -10 0 -10 -41 -15 -97 -11 -18 1 -33 -2 -33 -7 0 -5 -9
-12 -21 -15 -24 -6 -21 -32 4 -32 26 0 30 -13 7 -25 -18 -10 -24 -9 -32 1 -8
11 -9 11 -5 -1 2 -8 13 -15 25 -14 17 0 19 -3 11 -17 -12 -24 -11 -29 6 -29
17 0 38 -43 24 -48 -17 -7 -9 -23 9 -18 10 4 27 -3 42 -17 24 -21 65 -34 54
-16 -3 5 -11 9 -18 9 -7 0 -22 11 -33 24 -16 18 -18 27 -10 36 9 10 8 12 -6 7
-14 -5 -21 1 -32 26 -7 17 -12 33 -11 34 1 2 17 -1 34 -6 19 -6 34 -6 37 0 4
5 0 9 -8 9 -8 0 -17 7 -21 15 -3 8 -4 15 -3 15 1 0 17 -4 35 -10 30 -8 32 -7
21 6 -10 13 -10 17 1 24 8 5 18 6 22 4 4 -3 8 -1 8 4 0 5 12 8 28 6 39 -4 66
4 80 26 11 17 9 19 -10 17 -14 -1 -23 4 -23 13 0 8 -7 15 -15 15 -8 0 -23 9
-32 19 -22 23 -23 30 -4 23 22 -9 28 5 9 25 -15 17 -15 18 1 18 10 0 20 -9 23
-20 3 -11 11 -20 19 -20 20 0 26 17 8 24 -13 5 -14 9 -4 21 7 8 18 15 25 15
11 0 25 20 25 36 0 2 -11 4 -25 4 -14 0 -25 5 -25 10 0 6 7 10 16 10 10 0 14
6 10 15 -6 17 9 21 19 4 5 -6 13 -3 22 10 8 12 19 21 25 21 6 0 3 -9 -7 -20
-13 -14 -14 -20 -5 -20 9 0 7 -5 -6 -16 -18 -14 -18 -15 6 -8 59 16 69 23 63
43 -4 16 -1 19 16 16 11 -2 23 0 26 6 4 5 -1 9 -10 9 -13 0 -13 3 -3 13 6 8
23 12 37 9 25 -4 24 -2 -11 31 -36 34 -50 56 -28 42 6 -3 10 -1 10 4 0 6 -4
11 -9 11 -5 0 -11 10 -13 22 -2 14 -11 24 -23 25 -16 1 -16 1 -2 -3 11 -4 17
-16 17 -35 0 -33 -9 -45 -53 -74 -28 -18 -28 -18 -34 4 l-6 22 -19 -21 c-20
-22 -43 -26 -53 -10 -4 6 -23 9 -43 5 -26 -3 -33 -2 -22 5 13 8 13 10 -2 10
-9 0 -20 -9 -23 -21 -5 -16 -10 -18 -21 -8 -8 6 -14 8 -14 3 0 -5 -4 -3 -9 5
-8 12 -13 12 -24 3 -8 -7 -22 -10 -31 -6 -35 13 -14 -14 24 -31 22 -10 40 -24
40 -32 0 -7 8 -13 18 -14 41 -2 62 -6 69 -14 5 -4 0 -5 -10 -2 -9 4 -17 2 -17
-4 0 -7 -10 -9 -27 -5 -16 4 -37 8 -47 10 -25 3 -34 26 -10 26 22 0 14 9 -12
13 -10 1 -25 6 -31 10 -8 5 -13 3 -13 -6 0 -8 8 -18 17 -21 15 -6 15 -8 3 -16
-11 -7 -6 -13 23 -25 33 -14 36 -17 23 -30 -17 -18 -36 -20 -36 -4 0 6 -7 9
-15 5 -11 -4 -15 1 -15 19 0 15 -7 26 -20 30 -11 3 -20 13 -20 21 0 8 -4 14
-10 14 -5 0 -10 -7 -10 -15 0 -10 -9 -13 -32 -10 -17 2 -34 8 -37 12 -11 14
-45 38 -38 26 13 -22 -14 -25 -30 -4 -11 16 -18 19 -27 12 -9 -8 -21 -7 -39 2
-33 15 -35 27 -3 27 13 0 26 -3 29 -7 2 -5 2 -3 1 4 -2 7 1 15 6 18 6 4 10 -1
10 -9 0 -20 17 -29 36 -18 15 8 15 10 0 15 -9 4 -16 11 -16 17 0 6 4 9 9 5 5
-3 12 -1 16 5 3 5 1 10 -4 10 -16 0 -13 16 4 34 25 25 17 31 -10 6 -20 -19
-27 -21 -40 -10 -8 7 -15 19 -15 27 0 13 -3 13 -15 3 -13 -10 -15 -9 -15 10 0
13 -3 21 -6 17 -4 -3 -3 -27 1 -52 5 -36 10 -45 22 -41 9 4 13 1 11 -6 -3 -7
-18 -12 -34 -13 -26 0 -29 -3 -29 -32 -1 -45 -10 -50 -26 -14 -8 17 -17 31
-21 31 -5 0 -8 4 -8 10 0 5 7 7 15 4 12 -5 14 -2 8 12 -6 17 -5 17 10 5 17
-14 22 -5 11 22 -3 10 -14 14 -30 11 -13 -2 -35 3 -49 12 -25 17 -34 7 -14
-13 9 -9 6 -10 -10 -6 -13 3 -25 12 -28 19 -3 8 -12 14 -20 14 -8 0 -11 4 -8
10 9 15 118 2 132 -16 8 -12 13 -12 19 -3 4 7 3 14 -3 16 -6 2 -19 10 -29 19
-18 14 -17 14 11 12 29 -3 30 -1 30 37 0 40 13 67 28 58 4 -2 7 -15 7 -27 0
-36 24 -76 39 -66 11 6 11 8 0 12 -7 2 -14 13 -15 24 -1 10 -9 37 -17 59 -16
43 -10 55 28 54 18 0 18 -1 -2 -9 -27 -11 -27 -8 -8 -56 30 -74 38 -85 57 -78
10 3 18 0 18 -6 0 -7 6 -8 19 0 27 14 34 13 28 -5 -4 -8 -2 -17 3 -20 6 -4 10
-2 10 3 0 15 33 24 40 12 5 -8 9 -6 13 5 5 10 3 14 -5 9 -7 -4 -8 -3 -4 4 8
14 36 16 36 3 0 -4 11 -6 25 -3 14 2 25 6 25 9 0 11 -31 34 -39 28 -5 -3 -12
-1 -16 5 -10 16 -25 12 -19 -5 4 -9 0 -15 -10 -15 -9 0 -16 5 -16 11 0 8 -4 8
-13 1 -10 -8 -16 -6 -25 9 -7 11 -10 24 -7 29 4 6 -1 10 -9 10 -25 0 -27 -18
-4 -35 18 -12 20 -17 9 -24 -9 -6 -22 -1 -38 12 -13 12 -20 23 -14 25 5 2 7
10 4 18 -3 8 0 14 7 14 9 0 9 4 -1 17 -13 15 -11 16 16 9 17 -4 46 -10 65 -13
33 -5 87 -33 64 -33 -5 0 -14 4 -20 10 -5 5 -22 6 -39 2 -42 -12 -14 -25 47
-23 37 1 48 -2 48 -14 0 -12 4 -13 28 -2 26 11 44 28 38 35 -2 1 -15 -3 -29
-9 -21 -9 -29 -9 -41 4 -14 14 -14 16 0 21 9 3 27 6 40 6 14 0 22 4 19 10 -7
11 23 2 41 -12 7 -5 16 -3 23 6 9 11 7 18 -13 34 l-26 19 27 0 c15 0 27 -6 30
-16 6 -24 37 -41 54 -30 11 7 9 9 -8 9 -13 0 -23 5 -23 10 0 6 5 10 10 10 6 0
10 4 10 10 0 5 -6 7 -14 4 -8 -3 -23 3 -34 13 -22 21 -42 27 -42 13 0 -5 -6
-10 -14 -10 -7 0 -19 -7 -26 -15 -7 -8 -18 -15 -24 -14 -7 0 -6 2 2 6 23 9 12
20 -15 16 l-28 -5 25 21 c26 21 36 23 127 25 28 1 55 5 59 9 5 4 1 5 -9 1 -10
-3 -17 -1 -17 5 0 6 5 11 11 11 5 0 7 6 3 13 -3 6 5 -1 19 -18 26 -31 27 -48
2 -38 -8 3 -15 0 -15 -6 0 -14 16 -14 42 0 13 7 23 7 27 2 10 -15 48 -33 70
-33 16 0 21 6 21 25 0 15 6 25 14 25 8 0 18 5 22 12 5 8 2 9 -9 5 -9 -3 -19
-2 -21 2 -3 5 14 16 38 26 28 12 42 23 39 32 -3 7 0 13 6 13 6 0 11 -5 11 -10
0 -6 6 -5 14 2 22 21 8 38 -25 31 -18 -3 -29 -1 -29 6 0 6 7 11 15 11 8 0 15
3 15 8 -1 11 -50 44 -50 32 0 -5 5 -10 10 -10 17 0 11 -15 -12 -29 -18 -11
-23 -11 -32 0 -6 8 -29 15 -51 16 l-40 2 33 -15 c18 -8 37 -12 43 -9 5 4 10 1
10 -4 3 -26 4 -30 11 -37 4 -4 10 1 14 10 3 9 10 14 15 11 13 -9 -32 -54 -47
-48 -11 4 -12 9 -3 19 10 12 8 13 -7 8 -18 -6 -17 -5 1 9 11 9 15 17 8 17 -6
0 -19 3 -29 7 -13 5 -16 3 -11 -10 4 -11 1 -17 -8 -17 -19 0 -28 17 -13 23 19
6 7 15 -29 22 -18 3 -35 0 -38 -5 -4 -6 -17 -3 -34 10 -16 10 -31 16 -35 13
-8 -9 -34 -15 -68 -17 -21 -1 -24 -4 -17 -18 6 -11 5 -19 -3 -24 -6 -4 -8 -3
-5 3 10 16 -25 26 -35 11 -6 -11 -10 -11 -16 0 -5 7 -16 10 -25 6 -13 -5 -16
-2 -11 10 8 21 -24 22 -52 1 -12 -8 -24 -11 -28 -8 -3 3 -6 1 -6 -5 0 -7 7
-12 15 -12 9 0 12 -6 9 -15 -4 -9 0 -15 7 -15 9 -1 8 -4 -3 -11 -25 -14 -22
-28 5 -22 21 6 21 6 -3 -15 -14 -12 -20 -21 -15 -22 6 0 17 6 24 13 10 10 15
8 27 -7 8 -11 14 -29 14 -40 -1 -21 -1 -20 -19 2 -21 25 -37 28 -44 10 -5 -13
-11 16 -8 40 1 6 -2 12 -6 12 -4 1 -28 5 -53 11 -99 21 -100 21 -94 5 5 -12
10 -13 25 -5 22 11 25 0 6 -20 -10 -11 -8 -13 10 -8 15 3 29 -3 44 -19 12 -13
29 -24 36 -24 8 0 11 -4 8 -10 -10 -16 -45 -11 -76 11 -16 11 -29 16 -29 10 0
-15 -13 -14 -36 5 -10 8 -14 13 -9 10 6 -2 17 -1 25 5 12 7 13 9 1 9 -19 0
-41 33 -31 45 5 6 4 17 -2 25 -8 12 -9 12 -4 -2 3 -10 1 -20 -5 -23 -5 -4 -8
-14 -7 -23 2 -9 -3 -16 -10 -14 -6 1 -11 -4 -10 -10 2 -8 -9 -14 -25 -16 -15
-2 -27 -9 -27 -16 0 -10 13 -12 49 -8 33 3 51 0 56 -9 6 -9 4 -11 -8 -6 -10 4
-17 2 -17 -4 0 -6 -7 -9 -15 -5 -18 7 -20 -10 -2 -18 6 -3 1 -3 -13 0 -14 4
-35 17 -47 30 -13 15 -29 22 -43 19 -26 -5 -52 -24 -46 -34 3 -4 -7 -8 -22 -9
l-27 -2 23 16 c12 8 20 20 17 25 -4 5 1 9 10 9 9 0 13 5 10 11 -4 6 -13 8 -21
5 -8 -3 -14 1 -14 10 0 14 3 15 23 2 27 -17 93 -17 90 0 -2 6 7 14 20 17 13 4
28 15 35 26 14 22 0 26 -20 6 -27 -27 -88 -31 -72 -5 4 6 -1 6 -13 -1 -23 -12
-34 -6 -26 15 3 8 -1 14 -11 14 -9 0 -16 -4 -16 -9 0 -17 30 -40 45 -35 8 4
15 2 15 -3 0 -13 -42 -14 -59 0 -11 9 -15 9 -18 0 -7 -20 -19 -15 -20 7 -1 12
4 20 14 20 9 0 14 3 10 6 -3 4 -14 3 -24 -1 -10 -5 -21 -8 -25 -7 -3 1 1 -12
9 -28 8 -18 19 -28 26 -24 7 4 5 -1 -5 -11 -16 -18 -44 -12 -32 7 4 6 1 14 -7
18 -15 10 -29 4 -29 -11 0 -6 4 -8 9 -5 5 4 4 -5 -2 -18 -15 -31 -40 -15 -31
20 4 14 2 24 -5 24 -6 0 -17 13 -26 30 -17 33 -19 44 -6 35 17 -10 22 14 9 37
-7 13 -11 27 -10 32 2 4 3 24 4 43 1 29 4 34 24 31 13 -2 22 2 21 7 -1 6 -11
10 -23 10 -16 0 -21 6 -21 28 0 21 4 26 16 22 13 -5 14 -4 4 6 -18 18 -16 43
12 150 14 51 28 103 30 114 22 112 94 307 95 257 0 -10 5 -10 21 -1 15 8 19 8
15 0 -4 -6 -3 -11 3 -11 5 0 11 4 13 9 2 6 14 12 28 14 40 6 60 18 60 36 0 13
2 14 9 2 8 -12 11 -10 16 11 4 17 19 31 43 42 37 16 189 52 267 63 22 3 46 10
53 16 7 6 37 11 66 12 29 1 59 5 66 10 9 5 19 1 31 -13 10 -14 29 -22 46 -22
16 0 34 -5 41 -12 11 -11 12 -11 26 36 3 8 -4 16 -16 19 -28 8 -20 43 10 40
12 -2 22 3 22 10 1 35 15 39 93 23 42 -9 106 -16 142 -16 78 0 110 14 333 149
83 51 159 91 168 89 9 -2 -9 -19 -48 -44 -35 -23 -79 -56 -98 -73 -19 -17 -38
-31 -42 -31 -5 0 -8 -7 -8 -15 0 -8 -12 -21 -27 -29 -16 -8 -54 -37 -86 -65
-32 -28 -62 -51 -68 -51 -5 0 -9 -9 -9 -20 0 -11 -6 -20 -12 -21 -7 0 -4 -4 7
-8 15 -6 38 12 125 99 58 59 141 133 185 165 44 33 82 62 85 65 13 16 228 107
346 146 223 73 312 89 514 88 128 -1 194 -5 245 -18 128 -31 289 -86 394 -137
57 -27 105 -48 107 -46 2 2 -24 51 -58 110 -291 506 -781 850 -1349 946 -120
21 -360 33 -464 25z m-336 -601 c48 -5 59 -11 107 -59 72 -72 82 -90 90 -156
7 -64 0 -114 -21 -143 -15 -19 -15 -19 -31 3 -8 12 -20 22 -27 22 -6 0 -38 16
-69 36 -57 35 -78 37 -78 8 0 -12 -6 -13 -22 -7 -13 4 -49 8 -81 8 -38 0 -57
4 -57 12 0 8 -15 2 -36 -12 -20 -14 -45 -25 -55 -25 -9 0 -24 -3 -33 -6 -14
-5 -16 4 -16 63 l0 70 36 1 c32 1 35 0 23 -15 -13 -15 -10 -16 27 -11 69 9 98
28 104 68 8 54 46 47 64 -11 2 -9 26 -25 51 -35 47 -18 47 -18 64 5 13 17 25
22 51 19 47 -4 53 25 10 50 -20 11 -29 23 -27 34 4 13 -5 17 -47 20 -28 2 -62
0 -76 -5 -14 -6 -78 -11 -144 -11 l-118 -1 53 48 54 48 75 -6 c41 -3 99 -8
129 -12z m2 -371 c-13 -2 -34 -1 -47 2 l-24 6 23 26 22 25 24 -28 24 -28 -22
-3z m62 -74 c16 -15 35 -28 43 -28 12 0 12 -4 2 -22 -18 -32 -37 -45 -84 -58
-44 -13 -100 -1 -135 27 -12 10 -23 11 -42 4 -22 -8 -25 -8 -20 5 7 19 44 34
81 34 19 0 37 12 61 39 38 44 50 44 94 -1z m97 35 c0 -10 -32 -43 -42 -43 -5
0 -1 11 8 25 15 23 34 33 34 18z m-546 -178 c6 -17 4 -18 -18 -9 -20 8 -21 24
-2 24 8 0 16 -7 20 -15z m-99 -5 c-3 -5 -11 -10 -16 -10 -6 0 -7 5 -4 10 3 6
11 10 16 10 6 0 7 -4 4 -10z m-420 -10 c-3 -5 -14 -10 -23 -9 -14 0 -13 2 3 9
27 11 27 11 20 0z m118 3 c-7 -2 -19 -2 -25 0 -7 3 -2 5 12 5 14 0 19 -2 13
-5z m497 -3 c0 -5 -2 -10 -4 -10 -3 0 -8 5 -11 10 -3 6 -1 10 4 10 6 0 11 -4
11 -10z m-302 -12 c-3 -7 -15 -13 -28 -13 -13 0 -25 6 -27 13 -3 8 6 12 27 12
21 0 30 -4 28 -12z m340 0 c-3 -7 -13 -15 -24 -17 -16 -3 -17 -1 -5 13 16 19
34 21 29 4z m-493 -7 c6 -11 -26 -31 -49 -31 -19 0 -21 26 -3 33 21 9 46 8 52
-2z m-162 -28 c9 -9 -22 -43 -40 -43 -16 0 -17 22 -1 38 13 13 31 16 41 5z
m495 -36 c4 -18 -14 -22 -37 -8 -7 5 -10 14 -6 20 10 17 39 9 43 -12z m102 8
c7 -9 11 -18 8 -20 -9 -10 -38 7 -38 21 0 18 14 18 30 -1z m90 0 c0 -15 -43
-12 -48 3 -3 10 4 13 22 10 15 -2 26 -7 26 -13z m-310 -35 c0 -5 -7 -7 -15 -4
-8 4 -12 10 -9 15 6 11 24 2 24 -11z m-190 -10 c-20 -13 -53 -13 -45 0 3 6 18
10 33 10 21 0 24 -2 12 -10z m179 -9 c9 -6 10 -11 2 -15 -13 -8 -31 1 -31 15
0 11 11 11 29 0z m-321 -24 c2 -11 -3 -17 -15 -17 -15 0 -16 -2 -3 -10 13 -8
13 -10 -1 -10 -27 0 -44 27 -29 45 16 20 44 15 48 -8z m522 13 c13 -8 13 -10
-2 -10 -9 0 -20 5 -23 10 -8 13 5 13 25 0z m-103 -26 c2 -5 -6 -10 -17 -10
-20 0 -25 7 -13 20 9 8 26 3 30 -10z m-202 -13 c6 -11 -29 -34 -38 -25 -3 3
-3 12 0 20 6 16 29 19 38 5z m-299 -68 c-7 -7 -26 7 -26 19 0 6 6 6 15 -2 9
-7 13 -15 11 -17z m632 -845 c18 -18 14 -30 -8 -23 -10 3 -29 1 -40 -5 -12 -7
-25 -8 -28 -4 -4 4 -1 9 6 11 6 3 9 10 6 15 -4 6 -3 8 2 5 6 -3 16 -2 24 4 20
12 24 11 38 -3z m-203 -38 c3 -5 1 -10 -4 -10 -6 0 -11 5 -11 10 0 6 2 10 4
10 3 0 8 -4 11 -10z m103 -6 c11 4 23 2 27 -3 9 -16 -41 -24 -65 -11 -18 10
-20 14 -9 21 8 4 16 4 20 -3 4 -5 16 -7 27 -4z m-78 -48 c0 0 -12 -2 -28 -2
-15 -1 -21 1 -14 3 10 4 10 8 0 21 -10 12 -7 12 15 -2 15 -10 27 -19 27 -20z
m313 9 c21 -3 35 -10 32 -15 -3 -5 -1 -11 4 -14 15 -9 0 -46 -18 -45 -10 0
-11 2 -3 6 22 9 13 23 -15 23 -16 0 -35 5 -43 11 -11 8 -5 9 23 4 21 -3 37 -2
37 4 0 10 -13 15 -67 26 -18 4 -33 11 -33 16 0 5 9 5 23 -1 12 -5 39 -11 60
-15z m-148 -5 c8 -13 -15 -13 -35 0 -12 8 -11 10 7 10 12 0 25 -4 28 -10z
m-681 -85 c3 3 2 0 -4 -7 -5 -7 -6 -16 -1 -22 19 -23 17 -51 -5 -52 -17 -1
-20 4 -18 37 1 22 -2 39 -8 39 -5 0 -6 5 -3 10 5 8 11 8 19 1 7 -6 16 -9 20
-6z m160 -31 c11 -6 22 -16 24 -24 3 -7 0 -10 -7 -6 -6 4 -11 2 -11 -3 0 -6 4
-11 10 -11 5 0 7 -7 4 -15 -5 -11 -2 -13 11 -9 14 6 16 3 10 -17 -10 -33 -15
-36 -25 -19 -7 10 -10 11 -10 3 0 -7 -4 -13 -9 -13 -6 0 -9 9 -8 20 1 11 6 20
11 20 6 0 5 5 -1 11 -6 6 -9 17 -7 24 3 7 -6 22 -21 33 -16 13 -21 22 -13 25
7 2 15 1 18 -2 3 -3 14 -11 24 -17z m176 16 c0 -5 -7 -7 -15 -4 -8 4 -15 8
-15 10 0 2 7 4 15 4 8 0 15 -4 15 -10z m190 0 c8 -5 11 -10 5 -10 -5 0 -17 5
-25 10 -8 5 -10 10 -5 10 6 0 17 -5 25 -10z m-600 -10 c0 -5 -5 -10 -11 -10
-5 0 -7 5 -4 10 3 6 8 10 11 10 2 0 4 -4 4 -10z m404 -42 c-10 -16 -52 -8 -57
11 -3 13 0 18 8 15 7 -3 16 0 20 6 5 8 11 5 20 -7 7 -10 11 -21 9 -25z m175
29 c14 4 14 3 1 -6 -21 -15 -27 -14 -35 7 -5 13 -3 14 6 5 6 -6 19 -9 28 -6z
m131 3 c13 -9 13 -10 0 -10 -8 0 -22 5 -30 10 -13 9 -13 10 0 10 8 0 22 -5 30
-10z m-696 -26 c3 -8 2 -12 -4 -9 -6 3 -10 10 -10 16 0 14 7 11 14 -7z m198
-6 c-9 -9 -15 -9 -24 0 -9 9 -7 12 12 12 19 0 21 -3 12 -12z m-46 -6 c6 -4 15
-18 19 -32 l8 -25 -26 25 c-35 32 -35 55 -1 32z m-113 -67 c7 -20 7 -20 -8 -1
-8 11 -15 24 -15 29 0 5 -7 6 -16 3 -14 -5 -15 -4 -4 9 11 14 14 14 25 -2 6
-10 15 -27 18 -38z m76 14 c-8 -5 -21 -8 -29 -8 -10 0 -8 3 5 9 11 5 16 9 10
9 -5 1 -3 6 5 11 10 6 16 6 19 -1 2 -6 -3 -15 -10 -20z m286 1 c3 -4 -2 -10
-10 -14 -8 -3 -19 3 -25 13 -8 16 -7 18 10 14 11 -3 22 -9 25 -13z m-385 -10
c0 -5 -4 -10 -10 -10 -5 0 -10 5 -10 10 0 6 5 10 10 10 6 0 10 -4 10 -10z
m170 -26 c0 -8 -5 -12 -10 -9 -6 4 -8 11 -5 16 9 14 15 11 15 -7z m-205 -4
c-3 -5 -2 -10 3 -10 6 0 12 -10 16 -23 3 -13 18 -29 33 -37 26 -12 27 -13 8
-20 -11 -4 -26 -3 -33 3 -7 5 -15 7 -19 3 -3 -3 -1 -6 5 -6 6 0 14 -9 17 -20
4 -11 14 -19 22 -18 9 2 18 -3 20 -9 3 -7 -2 -13 -11 -13 -8 0 -13 -6 -10 -13
3 -8 -3 -13 -16 -13 -15 0 -19 5 -14 19 4 12 2 17 -4 13 -12 -7 -26 76 -17
104 4 11 2 20 -4 20 -6 0 -11 7 -11 15 0 8 5 15 11 15 5 0 7 -4 4 -10z m105
-14 c0 -2 -8 -10 -17 -17 -16 -13 -17 -12 -4 4 13 16 21 21 21 13z m60 -59
c19 -8 41 -12 48 -10 16 6 16 -5 -1 -21 -7 -8 -20 -10 -32 -6 -11 4 -29 3 -40
-3 -13 -7 -20 -7 -23 1 -2 6 -11 8 -20 5 -14 -4 -13 -3 2 9 21 17 15 55 -6 42
-9 -5 -9 -2 1 9 12 15 15 15 25 2 6 -8 27 -21 46 -28z m815 -44 c-11 -3 -28
-15 -38 -26 -16 -20 -17 -21 -10 -2 8 25 22 35 48 34 l20 -1 -20 -5z m-789
-28 c14 -16 15 -35 3 -35 -5 0 -7 -4 -4 -10 3 -5 -1 -10 -10 -10 -9 0 -14 -4
-10 -9 3 -5 1 -12 -4 -15 -5 -4 -12 -2 -16 4 -3 5 -19 10 -36 10 -16 0 -29 5
-29 10 0 6 17 10 38 10 36 0 62 14 62 32 0 13 -49 9 -80 -7 -19 -10 -31 -11
-35 -5 -15 25 101 48 121 25z m64 -1 c0 -2 -7 -4 -15 -4 -8 0 -15 4 -15 10 0
5 7 7 15 4 8 -4 15 -8 15 -10z m635 6 c3 -6 -5 -10 -19 -10 -13 0 -26 -5 -28
-12 -3 -7 -10 -8 -17 -3 -10 6 -6 11 15 21 37 16 41 16 49 4z m-130 -10 c-3
-5 -10 -10 -16 -10 -5 0 -9 5 -9 10 0 6 7 10 16 10 8 0 12 -4 9 -10z m25 -10
c0 -5 -5 -10 -11 -10 -5 0 -7 5 -4 10 3 6 8 10 11 10 2 0 4 -4 4 -10z m-516
-25 c9 -13 16 -27 16 -30 0 -9 -59 38 -59 48 -2 17 28 5 43 -18z m441 15 c3
-5 1 -10 -4 -10 -6 0 -11 5 -11 10 0 6 2 10 4 10 3 0 8 -4 11 -10z m-352 -23
c4 3 7 0 7 -8 1 -10 3 -9 11 4 14 23 28 22 22 -3 -3 -11 -9 -20 -14 -20 -5 0
-6 -6 -4 -12 2 -7 -11 -20 -30 -29 -29 -14 -37 -14 -46 -3 -9 11 -7 14 11 14
13 0 20 3 17 7 -4 3 1 12 11 19 16 13 16 13 0 14 -10 0 -18 7 -18 16 0 13 3
14 13 5 8 -6 17 -8 20 -4z m97 -12 c-14 -16 -40 -20 -40 -6 0 10 17 19 39 20
11 1 11 -2 1 -14z m-216 -1 c9 -3 16 -13 16 -20 0 -12 -4 -12 -20 -4 -11 6
-20 15 -20 20 0 12 3 12 24 4z m240 -35 c-8 -14 -24 -10 -24 6 0 9 6 12 15 9
8 -4 12 -10 9 -15z m-287 -3 c-5 -13 20 -45 30 -38 10 7 26 1 18 -7 -15 -15
-65 -2 -58 15 3 8 0 14 -6 14 -6 0 -11 -5 -11 -11 0 -5 -5 -7 -10 -4 -7 4 -2
14 11 26 26 23 33 24 26 5z m593 -7 c0 -5 12 -9 26 -9 22 0 25 -2 14 -15 -7
-8 -25 -15 -41 -15 -22 0 -27 4 -22 17 4 11 3 14 -5 9 -7 -4 -21 0 -33 8 -21
14 -21 14 7 18 34 4 54 -1 54 -13z m-652 -8 c-7 -11 -16 -17 -22 -14 -5 3 -1
12 9 20 25 18 27 17 13 -6z m148 -29 c-6 -5 -36 23 -36 34 0 4 9 -1 20 -11 11
-10 18 -20 16 -23z m289 12 c42 -21 45 -24 18 -19 -21 4 -33 3 -33 -4 0 -6 4
-11 10 -11 5 0 7 -7 4 -15 -8 -19 -24 -20 -24 -1 0 8 -10 18 -22 22 l-23 8 25
6 25 6 -30 17 c-49 26 -5 19 50 -9z m-120 6 c3 -5 1 -10 -4 -10 -6 0 -11 5
-11 10 0 6 2 10 4 10 3 0 8 -4 11 -10z m-109 -35 c-18 -28 -31 -26 -39 5 -4
17 -2 20 13 15 10 -3 21 -1 25 5 4 6 9 9 12 6 3 -3 -2 -17 -11 -31z m51 9 c-3
-3 -12 -4 -19 -1 -8 3 -5 6 6 6 11 1 17 -2 13 -5z m318 -4 c-3 -5 -1 -10 5
-10 6 0 8 -4 5 -10 -3 -5 -11 -10 -16 -10 -6 0 -7 5 -4 10 10 16 -11 12 -25
-5 -7 -8 -17 -15 -22 -15 -6 0 -8 7 -4 15 3 8 0 16 -7 16 -7 1 4 5 23 9 52 11
52 11 45 0z m-505 -4 c0 -2 -8 -10 -17 -17 -16 -13 -17 -12 -4 4 13 16 21 21
21 13z m59 -53 c2 -2 -2 -3 -10 -3 -8 0 -20 10 -28 23 l-14 22 24 -20 c13 -11
26 -21 28 -22z m243 25 c-9 -9 -15 -9 -24 0 -9 9 -7 12 12 12 19 0 21 -3 12
-12z m237 -22 c7 -8 8 -16 4 -19 -11 -7 -45 18 -36 26 10 11 19 8 32 -7z
m-371 -16 c21 0 23 -3 17 -30 -5 -21 -3 -30 6 -30 7 0 10 -2 7 -5 -3 -3 -16
-1 -29 4 -13 5 -18 10 -11 10 7 1 11 5 8 10 -4 5 0 12 6 14 8 3 6 6 -4 6 -10
1 -18 -3 -18 -9 0 -17 -45 -4 -48 15 -5 21 19 38 32 25 6 -6 21 -10 34 -10z
m-98 -43 c0 -4 -9 -3 -20 3 -11 6 -20 15 -20 20 0 6 9 5 20 -2 11 -7 20 -16
20 -21z m-58 -21 c-5 -6 -11 -17 -14 -25 -3 -11 -7 -10 -21 3 -21 22 -15 34
18 34 17 0 23 -4 17 -12z m-11 -41 c14 5 20 -1 27 -27 11 -39 10 -40 -12 -32
-18 7 -22 24 -5 24 5 0 7 5 3 11 -5 8 -9 8 -14 -1 -6 -9 -13 -7 -29 9 -11 11
-21 26 -21 32 0 6 7 3 16 -6 9 -9 24 -13 35 -10z m448 8 c-15 -17 -30 -17 -23
0 3 8 11 14 19 14 11 0 12 -4 4 -14z m-379 -24 c0 -6 -7 -6 -20 1 -11 6 -20
15 -20 21 0 6 7 6 20 -1 11 -6 20 -15 20 -21z m134 -54 c-5 -12 -10 -13 -20
-4 -19 15 -18 19 6 19 13 0 18 -5 14 -15z m-110 -1 c9 -3 13 -10 10 -16 -3 -5
2 -15 11 -22 16 -12 16 -13 1 -19 -10 -4 -16 -1 -16 8 0 8 -10 23 -22 35 -21
20 -15 26 16 14z m81 -54 c3 -5 1 -10 -4 -10 -6 0 -11 5 -11 10 0 6 2 10 4 10
3 0 8 -4 11 -10z m168 -28 c-10 -10 -28 -16 -39 -14 -12 2 -25 -1 -28 -7 -9
-14 -26 -14 -26 -1 0 6 7 10 15 10 8 0 15 4 15 9 0 6 15 12 33 14 17 2 35 5
40 5 4 1 -1 -6 -10 -16z m-90 -49 c-7 -2 -19 -2 -25 0 -7 3 -2 5 12 5 14 0 19
-2 13 -5z m87 -3 c0 -5 -2 -10 -4 -10 -3 0 -8 5 -11 10 -3 6 -1 10 4 10 6 0
11 -4 11 -10z m-20 -14 c0 -3 -4 -8 -10 -11 -5 -3 -10 -1 -10 4 0 6 5 11 10
11 6 0 10 -2 10 -4z m196 -283 c-11 -11 -17 4 -9 23 7 18 8 18 11 1 2 -10 1
-21 -2 -24z"/>
<path d="M730 1310 c-9 -6 -10 -10 -3 -10 6 0 15 5 18 10 8 12 4 12 -15 0z"/>
<path d="M675 830 c-3 -5 1 -10 10 -10 9 0 13 5 10 10 -3 6 -8 10 -10 10 -2 0
-7 -4 -10 -10z"/>
<path d="M2520 2630 c0 -5 5 -10 10 -10 6 0 10 5 10 10 0 6 -4 10 -10 10 -5 0
-10 -4 -10 -10z"/>
<path d="M2471 2621 c-8 -5 -9 -11 -3 -15 5 -3 12 1 16 9 6 17 6 18 -13 6z"/>
<path d="M2386 2611 c-3 -4 6 -6 19 -3 14 2 25 6 25 8 0 8 -39 4 -44 -5z"/>
<path d="M3017 2529 c7 -7 15 -10 18 -7 3 3 -2 9 -12 12 -14 6 -15 5 -6 -5z"/>
<path d="M2345 2470 c4 -6 11 -8 16 -5 14 9 11 15 -7 15 -8 0 -12 -5 -9 -10z"/>
<path d="M2625 2460 c3 -5 14 -10 23 -10 15 0 15 2 2 10 -20 13 -33 13 -25 0z"/>
<path d="M2160 2420 c0 -5 4 -10 9 -10 6 0 13 5 16 10 3 6 -1 10 -9 10 -9 0
-16 -4 -16 -10z"/>
<path d="M2458 2413 c-10 -2 -18 -9 -18 -14 0 -13 12 -11 34 6 20 15 16 17
-16 8z"/>
<path d="M1560 2400 c0 -5 7 -10 15 -10 8 0 15 5 15 10 0 6 -7 10 -15 10 -8 0
-15 -4 -15 -10z"/>
<path d="M2390 2380 c0 -5 5 -10 11 -10 5 0 7 5 4 10 -3 6 -8 10 -11 10 -2 0
-4 -4 -4 -10z"/>
<path d="M2610 2360 c0 -7 24 -20 36 -20 13 0 1 19 -16 23 -11 3 -20 2 -20 -3z"/>
<path d="M2706 2344 c-11 -7 -18 -16 -15 -18 2 -2 13 2 23 10 11 7 18 16 15
18 -2 2 -13 -2 -23 -10z"/>
<path d="M2450 2297 c0 -5 8 -6 19 -2 12 3 21 0 25 -10 3 -8 10 -15 16 -15 8
0 8 6 0 20 -10 19 -60 25 -60 7z"/>
<path d="M2820 2300 c0 -5 5 -10 10 -10 6 0 10 5 10 10 0 6 -4 10 -10 10 -5 0
-10 -4 -10 -10z"/>
<path d="M1125 2290 c-3 -5 3 -10 14 -10 12 0 21 5 21 10 0 6 -6 10 -14 10 -8
0 -18 -4 -21 -10z"/>
<path d="M2230 2296 c0 -2 9 -6 20 -9 11 -3 20 -1 20 4 0 5 -9 9 -20 9 -11 0
-20 -2 -20 -4z"/>
<path d="M2338 2283 c7 -3 16 -2 19 1 4 3 -2 6 -13 5 -11 0 -14 -3 -6 -6z"/>
<path d="M2541 2258 c5 -18 14 -35 19 -36 6 -2 7 -9 4 -14 -4 -7 -2 -8 4 -4 6
4 9 13 5 21 -3 8 0 15 7 15 7 0 10 -8 7 -19 -3 -13 8 -28 39 -52 47 -37 60
-62 19 -35 -14 9 -31 14 -37 10 -6 -4 -8 -3 -5 2 3 5 -10 20 -28 33 -19 13
-37 31 -40 41 -6 19 -34 35 -43 25 -3 -3 4 -12 17 -21 15 -11 20 -22 16 -35
-4 -12 -1 -21 10 -25 9 -4 14 -13 11 -20 -3 -8 -1 -14 5 -14 6 0 7 -5 4 -10
-4 -7 -14 -6 -28 2 -31 16 -47 34 -39 43 4 5 -2 5 -13 0 -11 -4 -28 -8 -37 -9
-22 0 -23 -15 -3 -22 8 -4 15 -12 15 -20 0 -10 -6 -8 -20 6 -11 11 -26 17 -34
14 -12 -5 -9 -11 12 -31 16 -15 20 -23 10 -20 -20 7 -31 -16 -16 -31 8 -8 1
-10 -25 -5 -30 4 -37 3 -37 -11 0 -9 7 -16 15 -16 8 0 15 -9 15 -20 0 -22 -19
-27 -37 -9 -8 8 -16 8 -30 0 -17 -10 -17 -11 5 -17 12 -3 22 -14 21 -23 0 -10
-2 -11 -6 -3 -2 6 -12 12 -21 12 -14 0 -14 -2 -3 -9 22 -14 5 -41 -25 -41 -22
0 -24 -2 -14 -14 6 -8 18 -12 26 -9 16 6 16 -17 -1 -29 -13 -10 -37 -10 -32 0
4 6 -37 8 -83 3 -23 -2 3 -21 33 -23 15 -1 27 -6 27 -11 0 -4 5 -5 10 -2 6 3
10 1 10 -5 0 -11 -7 -14 -53 -24 -15 -4 -25 -11 -22 -16 7 -11 55 -9 55 2 0 4
5 8 10 8 6 0 10 -4 10 -8 0 -10 -51 -37 -63 -33 -5 1 -5 -3 -2 -9 4 -6 13 -9
21 -6 7 3 16 1 19 -3 2 -5 -3 -11 -13 -14 -9 -2 -26 -8 -36 -13 -11 -4 -17 -4
-14 2 3 5 -9 16 -27 25 -32 15 -34 15 -38 -3 -6 -20 15 -34 32 -23 7 3 8 0 5
-9 -6 -16 10 -22 46 -17 8 1 35 3 59 5 24 2 46 8 50 13 3 5 15 13 26 17 20 7
20 8 1 22 -11 8 -16 14 -11 14 5 0 21 -12 36 -26 26 -25 28 -25 57 -10 17 9
41 16 52 16 17 0 20 4 15 20 -5 15 -3 18 9 14 22 -8 27 -32 10 -42 -16 -9 -36
-77 -26 -86 8 -9 32 15 32 31 0 8 6 13 13 10 6 -2 17 2 22 10 11 14 105 27
105 14 0 -8 24 -18 63 -27 10 -2 16 0 12 6 -3 5 -2 10 3 10 6 0 12 -7 16 -15
3 -8 12 -15 20 -15 8 0 27 -12 42 -27 15 -16 24 -23 20 -17 -3 7 3 14 15 17
16 4 18 3 8 -9 -6 -8 -9 -25 -7 -39 3 -14 1 -25 -6 -25 -5 0 -3 -8 6 -17 14
-13 22 -14 40 -5 18 8 19 11 6 11 -26 1 -22 21 5 22 15 1 17 3 5 6 -18 5 -21
43 -3 55 6 5 4 8 -6 8 -19 0 -19 42 1 48 7 3 10 0 6 -7 -5 -7 3 -11 21 -11 30
0 41 6 62 33 12 15 11 17 -8 17 -12 0 -20 -4 -16 -9 3 -6 -3 -15 -14 -20 -27
-15 -28 -14 -26 12 1 12 -1 24 -6 27 -4 3 -9 14 -11 25 -1 11 -7 23 -13 27 -5
4 -6 10 -3 14 7 6 39 -20 38 -31 -1 -22 2 -26 15 -22 8 4 17 2 21 -4 4 -6 11
-6 20 2 18 15 30 -11 16 -38 -5 -10 -7 -23 -5 -29 2 -7 -11 -14 -31 -18 -20
-4 -38 -11 -41 -15 -6 -11 54 2 80 16 20 11 55 6 55 -8 0 -5 -9 -9 -20 -9 -29
0 -25 -17 6 -23 16 -3 28 0 31 9 4 10 10 11 23 4 14 -8 18 -6 16 6 -1 9 -9 20
-17 25 -12 7 -12 9 0 9 10 0 8 7 -8 24 -13 14 -20 29 -16 35 3 6 -5 15 -18 20
-14 6 -28 15 -32 21 -5 8 -10 8 -20 0 -8 -7 -22 -10 -32 -8 -15 4 -13 7 10 18
15 7 27 21 27 32 0 10 7 18 16 18 9 0 12 -5 8 -12 -4 -6 1 -17 11 -25 11 -7
13 -13 7 -13 -7 0 -12 -4 -12 -10 0 -5 9 -10 19 -10 21 0 63 -50 66 -79 3 -27
17 -75 32 -104 12 -24 12 -30 -2 -44 -12 -11 -13 -19 -6 -26 6 -6 11 -19 11
-29 0 -19 37 -58 56 -58 6 0 14 9 17 20 6 23 -3 26 -21 8 -8 -8 -12 -9 -12 -1
0 6 7 19 16 27 8 9 13 16 9 16 -4 0 0 7 9 15 8 8 19 15 25 15 6 0 8 7 5 15 -4
10 0 15 15 15 23 0 27 10 10 27 -9 9 -16 6 -30 -10 -25 -30 -24 -10 1 28 31
47 24 83 -10 53 -12 -11 -12 -10 -2 3 6 9 8 20 4 24 -4 5 -2 5 4 2 7 -4 17 0
24 8 7 8 16 13 20 10 4 -3 10 2 14 10 3 8 -8 29 -24 47 -19 21 -28 39 -24 50
6 19 -2 22 -48 19 -26 -1 -27 1 -18 25 13 34 13 41 -2 26 -15 -15 -28 -15 -28
-1 0 5 5 7 12 3 8 -5 9 0 5 17 -4 13 -7 28 -7 33 0 5 -7 3 -15 -4 -17 -14 -17
-14 -20 20 -2 14 2 31 7 38 13 15 -9 17 -31 3 -19 -12 -47 3 -54 29 -3 11 -1
18 3 15 17 -11 15 20 -2 37 -20 20 -24 43 -5 32 9 -5 9 -3 -1 7 -11 12 -14 12
-22 -1 -14 -23 -50 -21 -47 3 3 26 -23 35 -30 9 -10 -42 -93 15 -93 65 -1 26
-1 27 -12 8 -6 -11 -19 -25 -27 -32 -14 -11 -14 -12 4 -13 l20 -1 -20 -8 c-11
-5 -21 -4 -23 0 -2 5 -10 9 -18 9 -17 0 -19 20 -1 20 6 0 0 8 -15 18 -16 9
-28 20 -28 24 0 4 -6 5 -13 2 -7 -2 -24 7 -36 20 -13 14 -28 23 -34 19 -5 -3
-3 -9 4 -14 8 -5 9 -9 3 -9 -5 0 -20 14 -33 30 -12 17 -26 28 -32 25 -5 -4 -9
-1 -9 4 0 6 -9 11 -19 11 -17 0 -19 -4 -10 -32z m143 -104 c6 -15 4 -15 -11
-3 -10 7 -20 15 -22 16 -2 2 3 3 11 3 9 0 19 -7 22 -16z m331 -106 c5 4 5 1 1
-6 -6 -10 -11 -10 -22 -1 -8 6 -14 14 -14 16 0 3 6 0 13 -6 8 -6 18 -7 22 -3z
m-458 -134 c-3 -3 -12 -4 -19 -1 -8 3 -5 6 6 6 11 1 17 -2 13 -5z m43 -26 c0
-7 -5 -20 -10 -28 -8 -13 -11 -11 -16 7 -4 13 -10 20 -15 17 -5 -3 -9 0 -9 5
0 6 11 11 25 11 14 0 25 -6 25 -12z m41 -23 c11 4 14 -2 14 -20 -2 -27 -15
-48 -15 -23 0 9 -7 18 -15 22 -8 3 -15 13 -15 23 0 13 2 15 8 5 5 -7 15 -10
23 -7z m-226 -5 c-3 -5 -10 -10 -16 -10 -5 0 -9 5 -9 10 0 6 7 10 16 10 8 0
12 -4 9 -10z m60 -28 c-3 -3 -11 0 -18 7 -9 10 -8 11 6 5 10 -3 15 -9 12 -12z
m-185 4 c0 -11 -19 -15 -25 -6 -3 5 1 10 9 10 9 0 16 -2 16 -4z m156 -32 c2
-20 -1 -23 -12 -13 -8 6 -14 18 -14 25 0 8 -7 11 -17 8 -14 -5 -15 -4 -4 4 21
15 46 3 47 -24z m-66 16 c0 -5 -7 -10 -16 -10 -8 0 -12 5 -9 10 3 6 10 10 16
10 5 0 9 -4 9 -10z m554 -15 c-4 -8 -11 -15 -16 -15 -6 0 -5 6 2 15 7 8 14 15
16 15 2 0 1 -7 -2 -15z m-589 -25 c-3 -5 1 -10 10 -10 9 0 13 -5 10 -10 -5 -8
-11 -8 -19 -1 -7 6 -16 8 -19 4 -4 -3 -7 -2 -7 4 0 12 10 23 22 23 5 0 6 -4 3
-10z m455 -31 c0 -10 -6 -19 -14 -19 -9 0 -12 8 -8 25 5 28 22 24 22 -6z m70
-15 c0 -13 -30 -28 -38 -19 -3 3 0 5 6 5 7 0 12 7 12 16 0 10 -6 14 -15 10 -9
-3 -15 0 -15 8 0 34 49 14 50 -20z m-455 16 c3 -6 -1 -7 -9 -4 -18 7 -21 14
-7 14 6 0 13 -4 16 -10z m825 -5 c-2 -17 -40 -26 -40 -11 0 14 18 26 33 22 5
-1 8 -6 7 -11z m-221 -46 c1 -4 -8 -9 -19 -12 -23 -6 -23 -7 -9 30 10 26 12
27 19 8 5 -11 9 -23 9 -26z m196 -79 c-3 -5 -12 -10 -18 -10 -7 0 -6 4 3 10
19 12 23 12 15 0z m-15 -79 c0 -5 -7 -12 -16 -15 -14 -5 -15 -4 -4 9 14 17 20
19 20 6z"/>
<path d="M2637 2274 c3 -7 9 -14 14 -14 14 0 10 17 -5 23 -10 4 -13 1 -9 -9z"/>
<path d="M1470 2272 c0 -15 25 -21 41 -11 9 5 9 9 2 9 -6 0 -18 3 -27 6 -9 3
-16 2 -16 -4z"/>
<path d="M2851 2257 c-11 -28 -3 -41 15 -26 7 6 11 16 7 22 -3 6 -1 7 6 3 6
-4 8 -12 5 -18 -6 -9 12 -27 28 -28 16 0 -10 54 -30 61 -18 7 -24 4 -31 -14z"/>
<path d="M3325 2270 c3 -5 8 -10 11 -10 2 0 4 5 4 10 0 6 -5 10 -11 10 -5 0
-7 -4 -4 -10z"/>
<path d="M2356 2255 c-3 -8 -1 -15 4 -15 6 0 10 7 10 15 0 8 -2 15 -4 15 -2 0
-6 -7 -10 -15z"/>
<path d="M2676 2262 c-7 -12 19 -41 30 -34 6 4 3 14 -8 24 -9 10 -19 14 -22
10z"/>
<path d="M2710 2261 c0 -4 11 -14 25 -21 13 -7 27 -21 31 -32 3 -10 11 -18 18
-18 19 0 39 27 33 42 -4 8 -6 7 -6 -4 -1 -10 -9 -18 -18 -18 -15 0 -16 2 -3
10 11 7 12 12 4 20 -14 14 -84 31 -84 21z"/>
<path d="M3060 2261 c0 -5 9 -7 20 -4 11 3 20 7 20 9 0 2 -9 4 -20 4 -11 0
-20 -4 -20 -9z"/>
<path d="M740 2250 c0 -5 5 -10 11 -10 5 0 7 5 4 10 -3 6 -8 10 -11 10 -2 0
-4 -4 -4 -10z"/>
<path d="M2398 2248 c9 -9 7 -14 -6 -24 -16 -12 -16 -13 3 -14 45 0 61 44 16
48 -19 2 -22 -1 -13 -10z"/>
<path d="M1525 2239 c-4 -6 -4 -13 -1 -16 3 -4 6 -1 6 6 0 8 7 10 20 6 11 -4
20 -2 20 4 0 14 -37 14 -45 0z"/>
<path d="M704 2225 c3 -8 -2 -18 -11 -23 -14 -9 -14 -12 0 -41 9 -17 11 -33 6
-37 -5 -3 -9 -16 -9 -30 0 -18 5 -24 22 -24 21 0 21 1 3 13 -20 15 -13 37 12
37 14 0 13 4 -5 20 -12 12 -22 29 -22 39 0 21 25 35 43 24 7 -3 3 3 -7 15 -22
25 -41 29 -32 7z"/>
<path d="M2477 2211 c3 -12 9 -21 14 -21 14 0 11 16 -5 29 -12 10 -13 8 -9 -8z"/>
<path d="M2130 2210 c0 -5 5 -10 10 -10 6 0 10 5 10 10 0 6 -4 10 -10 10 -5 0
-10 -4 -10 -10z"/>
<path d="M2971 2203 c0 -5 4 -17 9 -28 8 -18 9 -17 9 8 1 15 -3 27 -9 27 -5 0
-10 -3 -9 -7z"/>
<path d="M1580 2190 c-8 -5 -10 -10 -5 -10 6 0 17 5 25 10 8 5 11 10 5 10 -5
0 -17 -5 -25 -10z"/>
<path d="M2366 2181 c-7 -10 36 -23 44 -13 3 4 4 6 1 5 -2 -1 -12 2 -22 7 -10
6 -20 6 -23 1z"/>
<path d="M994 2165 c-10 -8 -14 -15 -8 -15 6 0 17 7 24 15 16 19 9 19 -16 0z"/>
<path d="M778 2163 c7 -3 16 -2 19 1 4 3 -2 6 -13 5 -11 0 -14 -3 -6 -6z"/>
<path d="M1405 2160 c-3 -5 1 -10 10 -10 9 0 13 5 10 10 -3 6 -8 10 -10 10 -2
0 -7 -4 -10 -10z"/>
<path d="M1140 2151 c0 -14 26 -32 35 -23 5 4 5 1 0 -6 -4 -8 -16 -12 -26 -9
-10 3 -24 -1 -30 -9 -14 -17 -89 -10 -101 9 -6 9 -8 9 -8 -1 0 -7 7 -15 15
-18 8 -4 15 -12 15 -19 0 -10 13 -13 45 -11 51 3 66 12 45 27 -11 7 -7 8 14 3
19 -5 31 -2 37 7 5 8 9 9 9 3 0 -7 11 -9 26 -6 21 4 23 7 12 18 -18 18 -88 46
-88 35z"/>
<path d="M2044 2142 c11 -12 19 -13 27 -5 7 7 3 12 -16 15 -25 5 -25 4 -11
-10z"/>
<path d="M2170 2150 c0 -5 5 -10 11 -10 5 0 7 5 4 10 -3 6 -8 10 -11 10 -2 0
-4 -4 -4 -10z"/>
<path d="M2874 2145 c8 -8 23 -15 32 -15 25 0 2 23 -27 27 -18 3 -19 1 -5 -12z"/>
<path d="M3425 2150 c3 -5 8 -10 11 -10 2 0 4 5 4 10 0 6 -5 10 -11 10 -5 0
-7 -4 -4 -10z"/>
<path d="M1105 2139 c-10 -15 3 -25 16 -12 7 7 7 13 1 17 -6 3 -14 1 -17 -5z"/>
<path d="M3165 2140 c-3 -5 -2 -10 4 -10 5 0 13 5 16 10 3 6 2 10 -4 10 -5 0
-13 -4 -16 -10z"/>
<path d="M848 2133 c7 -3 16 -2 19 1 4 3 -2 6 -13 5 -11 0 -14 -3 -6 -6z"/>
<path d="M1980 2132 c0 -16 28 -34 34 -23 4 6 -3 15 -14 21 -11 6 -20 7 -20 2z"/>
<path d="M2300 2132 c0 -15 24 -32 45 -32 19 0 18 2 -5 20 -27 21 -40 25 -40
12z"/>
<path d="M3080 2123 c0 -12 5 -25 10 -28 13 -8 13 15 0 35 -8 12 -10 11 -10
-7z"/>
<path d="M460 2120 c0 -12 30 -33 37 -26 3 3 1 6 -6 6 -7 0 -9 5 -6 10 4 6 12
7 18 4 7 -4 9 -3 4 1 -9 11 -47 14 -47 5z"/>
<path d="M1690 2115 c-11 -13 -10 -18 6 -30 18 -13 18 -14 2 -20 -10 -4 -18
-12 -18 -17 0 -6 6 -5 15 2 8 6 19 9 25 5 5 -3 10 -2 10 4 0 5 -5 13 -10 16
-6 4 -8 11 -5 16 4 5 2 16 -3 25 -8 14 -10 14 -22 -1z"/>
<path d="M640 2105 c-7 -9 -8 -15 -2 -15 5 0 12 7 16 15 3 8 4 15 2 15 -2 0
-9 -7 -16 -15z"/>
<path d="M1285 2104 c-15 -16 -15 -18 0 -33 14 -14 17 -14 25 -1 8 12 10 12
10 1 0 -9 9 -12 30 -9 17 3 30 1 30 -4 0 -4 5 -8 11 -8 22 0 2 25 -21 26 -13
1 -32 11 -41 23 -21 25 -23 26 -44 5z"/>
<path d="M2980 2106 c0 -9 5 -16 10 -16 6 0 10 4 10 9 0 6 -4 13 -10 16 -5 3
-10 -1 -10 -9z"/>
<path d="M773 2098 c1 -7 -3 -12 -10 -11 -7 2 -10 -4 -6 -13 3 -8 11 -13 17
-11 6 2 19 0 29 -5 34 -17 38 4 6 28 -38 28 -40 28 -36 12z"/>
<path d="M1654 2102 c4 -7 2 -19 -4 -27 -7 -9 -8 -15 -2 -15 16 0 24 32 11 44
-9 8 -10 8 -5 -2z"/>
<path d="M3708 2103 c7 -3 16 -2 19 1 4 3 -2 6 -13 5 -11 0 -14 -3 -6 -6z"/>
<path d="M2156 2091 c-4 -5 -2 -12 3 -15 5 -4 12 -2 15 3 4 5 2 12 -3 15 -5 4
-12 2 -15 -3z"/>
<path d="M1235 2080 c-3 -5 1 -10 10 -10 9 0 13 5 10 10 -3 6 -8 10 -10 10 -2
0 -7 -4 -10 -10z"/>
<path d="M2089 2073 c-13 -17 -13 -17 6 -3 11 8 22 16 24 17 2 2 0 3 -6 3 -6
0 -17 -8 -24 -17z"/>
<path d="M1000 2060 c-9 -6 -10 -10 -3 -10 6 0 15 5 18 10 8 12 4 12 -15 0z"/>
<path d="M3078 2063 c7 -3 16 -2 19 1 4 3 -2 6 -13 5 -11 0 -14 -3 -6 -6z"/>
<path d="M605 2034 l-16 -25 25 16 c14 10 26 21 26 26 0 17 -18 9 -35 -17z"/>
<path d="M648 2029 c-10 -5 -18 -17 -18 -26 0 -13 -8 -15 -45 -10 -27 4 -45 3
-45 -3 0 -6 12 -10 26 -10 21 0 24 -4 19 -20 -5 -16 -2 -20 19 -20 23 0 44 30
38 54 -2 5 5 17 14 27 19 21 17 23 -8 8z"/>
<path d="M1555 2030 c3 -5 8 -10 11 -10 2 0 4 5 4 10 0 6 -5 10 -11 10 -5 0
-7 -4 -4 -10z"/>
<path d="M778 2023 c7 -3 16 -2 19 1 4 3 -2 6 -13 5 -11 0 -14 -3 -6 -6z"/>
<path d="M1730 2020 c0 -5 4 -10 9 -10 6 0 13 5 16 10 3 6 -1 10 -9 10 -9 0
-16 -4 -16 -10z"/>
<path d="M1768 2006 c-13 -13 -30 -33 -38 -45 -8 -11 -24 -21 -36 -21 -12 0
-24 -5 -26 -10 -2 -6 -13 -12 -25 -13 -12 0 -19 -5 -17 -9 7 -11 64 -4 91 10
27 15 45 15 20 1 -10 -6 -16 -17 -13 -27 9 -27 -7 -41 -48 -44 -20 -1 -40 -6
-43 -12 -4 -5 5 -6 19 -3 19 5 28 2 32 -9 5 -12 10 -13 19 -6 10 8 13 5 15
-14 1 -15 -6 -29 -18 -36 -26 -17 -26 -31 1 -23 15 5 19 4 15 -4 -4 -6 -3 -11
2 -11 5 0 14 33 21 73 7 39 18 86 26 102 26 58 49 110 53 118 9 17 -29 5 -50
-17z"/>
<path d="M1985 2020 c-19 -8 -19 -9 3 -9 12 -1 22 4 22 9 0 6 -1 10 -2 9 -2 0
-12 -4 -23 -9z"/>
<path d="M1135 2010 c3 -5 8 -10 11 -10 2 0 4 5 4 10 0 6 -5 10 -11 10 -5 0
-7 -4 -4 -10z"/>
<path d="M1644 2008 c-3 -4 4 -8 15 -8 11 0 22 4 26 9 3 6 -4 9 -16 8 -11 -1
-23 -5 -25 -9z"/>
<path d="M2225 2010 c3 -5 8 -10 11 -10 2 0 4 5 4 10 0 6 -5 10 -11 10 -5 0
-7 -4 -4 -10z"/>
<path d="M3064 2005 c21 -16 32 -13 21 4 -3 6 -14 11 -23 11 -15 -1 -15 -2 2
-15z"/>
<path d="M3245 2009 c-4 -6 -5 -12 -2 -15 2 -3 7 2 10 11 7 17 1 20 -8 4z"/>
<path d="M485 1999 c-9 -14 -2 -20 14 -10 8 6 9 11 3 15 -6 3 -14 1 -17 -5z"/>
<path d="M658 2003 c-3 -4 -1 -21 2 -38 5 -21 9 -25 13 -15 11 25 -4 75 -15
53z"/>
<path d="M1010 1990 c0 -5 5 -10 11 -10 5 0 7 5 4 10 -3 6 -8 10 -11 10 -2 0
-4 -4 -4 -10z"/>
<path d="M1916 1991 c-8 -12 8 -26 31 -29 17 -2 21 1 17 11 -6 16 -41 29 -48
18z"/>
<path d="M2038 1993 c7 -3 16 -2 19 1 4 3 -2 6 -13 5 -11 0 -14 -3 -6 -6z"/>
<path d="M1693 1983 c9 -2 23 -2 30 0 6 3 -1 5 -18 5 -16 0 -22 -2 -12 -5z"/>
<path d="M1880 1983 c0 -4 5 -15 10 -23 8 -13 10 -13 10 2 0 9 -4 20 -10 23
-5 3 -10 3 -10 -2z"/>
<path d="M2158 1983 c6 -2 18 -2 25 0 6 3 1 5 -13 5 -14 0 -19 -2 -12 -5z"/>
<path d="M1600 1976 c0 -2 7 -7 16 -10 8 -3 12 -2 9 4 -6 10 -25 14 -25 6z"/>
<path d="M830 1962 c0 -5 7 -13 16 -16 10 -4 14 -1 12 6 -5 15 -28 23 -28 10z"/>
<path d="M696 1934 c-4 -14 -5 -29 -1 -32 3 -3 5 2 5 11 0 16 15 16 61 2 10
-4 19 -2 19 4 0 13 -35 32 -43 24 -4 -3 -13 -1 -21 6 -11 9 -15 6 -20 -15z"/>
<path d="M882 1952 c-10 -7 -7 -13 12 -25 14 -10 30 -17 36 -17 6 0 9 -3 7 -7
-3 -5 10 -8 29 -9 19 0 40 -6 47 -14 10 -10 8 -12 -10 -7 -31 7 -38 -7 -10
-21 39 -18 56 -21 63 -11 3 6 13 7 23 4 9 -4 27 -9 41 -11 20 -2 25 1 26 21 1
14 -1 23 -6 20 -4 -2 -16 4 -28 15 -23 22 -42 9 -22 -15 9 -11 9 -15 1 -15 -6
0 -11 4 -11 10 0 5 -20 15 -45 21 -25 6 -42 15 -39 20 3 5 -1 9 -8 9 -9 0 -9
3 2 10 8 5 13 10 10 11 -3 0 -12 2 -20 4 -47 12 -87 15 -98 7z"/>
<path d="M1547 1946 c-4 -10 0 -12 14 -9 10 3 16 9 13 14 -8 13 -21 11 -27 -5z"/>
<path d="M1995 1950 c-3 -6 1 -7 9 -4 18 7 21 14 7 14 -6 0 -13 -4 -16 -10z"/>
<path d="M2083 1944 c-3 -9 -13 -14 -23 -11 -13 3 -16 0 -13 -14 3 -11 14 -19
24 -19 10 0 21 -4 24 -10 3 -5 12 -10 18 -10 7 0 4 5 -5 11 -21 12 -23 40 -6
57 9 9 9 12 0 12 -7 0 -15 -7 -19 -16z"/>
<path d="M440 1937 c14 -7 34 -11 44 -8 20 4 20 4 0 12 -10 4 -30 8 -44 8
l-25 1 25 -13z"/>
<path d="M510 1937 c0 -8 9 -22 20 -32 11 -10 20 -13 20 -7 0 7 -4 12 -10 12
-5 0 -10 6 -10 14 0 8 -4 18 -10 21 -5 3 -10 0 -10 -8z"/>
<path d="M1830 1942 c0 -6 5 -14 10 -17 6 -3 10 -11 10 -16 0 -6 -4 -8 -8 -5
-4 2 -7 -7 -6 -22 2 -40 3 -42 14 -42 17 0 24 31 9 41 -10 7 -11 11 -2 17 8 5
6 14 -8 31 -10 13 -19 18 -19 13z"/>
<path d="M797 1919 c6 -23 39 -43 58 -36 7 3 18 0 24 -6 8 -8 11 -8 11 0 0 6
-7 18 -15 26 -8 8 -11 17 -8 21 4 3 1 6 -5 6 -7 0 -12 -4 -12 -10 0 -5 -7 -10
-15 -10 -8 0 -15 4 -15 9 0 5 -6 11 -14 14 -10 4 -12 0 -9 -14z"/>
<path d="M1887 1933 c-8 -12 16 -36 26 -26 4 3 7 -4 7 -17 0 -18 3 -20 14 -11
10 8 16 9 21 1 3 -6 10 -8 15 -5 5 3 11 1 15 -5 3 -5 17 -10 31 -10 13 0 24
-3 24 -7 0 -5 19 -9 42 -11 23 -1 46 -8 50 -15 5 -8 8 -7 8 6 0 12 -8 17 -29
17 -16 0 -36 6 -43 13 -7 6 -22 12 -33 12 -11 -1 -29 5 -41 12 -11 7 -24 10
-27 6 -4 -3 -7 1 -7 10 0 12 -9 17 -29 17 -16 0 -31 5 -33 12 -3 8 -6 9 -11 1z"/>
<path d="M390 1920 c0 -5 5 -10 11 -10 5 0 7 5 4 10 -3 6 -8 10 -11 10 -2 0
-4 -4 -4 -10z"/>
<path d="M2120 1910 c0 -6 7 -10 15 -10 8 0 15 2 15 4 0 2 -7 6 -15 10 -8 3
-15 1 -15 -4z"/>
<path d="M635 1900 c3 -5 8 -10 11 -10 2 0 4 5 4 10 0 6 -5 10 -11 10 -5 0 -7
-4 -4 -10z"/>
<path d="M3272 1893 c2 -10 11 -19 21 -21 23 -5 21 10 -4 26 -18 12 -20 11
-17 -5z"/>
<path d="M3780 1900 c0 -5 5 -10 11 -10 5 0 7 5 4 10 -3 6 -8 10 -11 10 -2 0
-4 -4 -4 -10z"/>
<path d="M410 1896 c0 -2 7 -7 16 -10 8 -3 12 -2 9 4 -6 10 -25 14 -25 6z"/>
<path d="M1370 1880 c0 -5 5 -10 11 -10 5 0 7 5 4 10 -3 6 -8 10 -11 10 -2 0
-4 -4 -4 -10z"/>
<path d="M3197 1872 c-23 -25 -22 -29 8 -29 27 0 28 2 16 30 -6 18 -7 18 -24
-1z"/>
<path d="M724 1864 c3 -9 6 -18 6 -20 0 -2 9 -4 20 -4 11 0 20 -7 20 -16 0 -9
5 -12 11 -8 7 4 21 8 33 9 11 1 25 3 31 4 18 2 -40 36 -62 36 -12 1 -25 4 -29
8 -14 14 -36 7 -30 -9z"/>
<path d="M1495 1870 c-3 -5 -1 -10 4 -10 6 0 11 5 11 10 0 6 -2 10 -4 10 -3 0
-8 -4 -11 -10z"/>
<path d="M3240 1860 c0 -5 5 -10 11 -10 5 0 7 5 4 10 -3 6 -8 10 -11 10 -2 0
-4 -4 -4 -10z"/>
<path d="M431 1849 c-12 -5 -28 -6 -34 -2 -7 3 -3 -3 7 -15 20 -23 46 -29 46
-11 0 8 4 9 13 0 8 -6 17 -8 20 -4 7 6 11 -11 8 -34 -1 -7 3 -13 9 -13 5 0 10
-5 10 -10 0 -6 -11 -8 -25 -4 -16 4 -25 2 -25 -6 0 -6 5 -8 10 -5 6 3 10 0 10
-8 0 -9 11 -14 30 -14 18 0 30 6 30 14 0 7 -4 13 -8 13 -5 0 -8 15 -8 34 1 35
16 40 16 6 0 -10 5 -20 10 -22 6 -2 12 -14 13 -26 2 -30 41 -26 45 4 2 16 -4
23 -23 28 -20 5 -25 12 -23 29 2 18 -2 22 -27 23 -48 2 -53 3 -67 18 -9 9 -21
10 -37 5z m164 -99 c3 -5 -1 -10 -10 -10 -9 0 -13 5 -10 10 3 6 8 10 10 10 2
0 7 -4 10 -10z"/>
<path d="M1286 1853 c2 -3 -3 -12 -11 -20 -9 -9 -13 -24 -9 -38 3 -12 1 -26
-5 -29 -6 -4 -11 -11 -11 -16 0 -13 33 -22 40 -10 10 15 67 23 75 10 3 -5 15
-10 27 -10 16 0 18 3 9 14 -7 8 -24 17 -39 21 l-27 7 23 18 c49 40 18 48 -50
13 -25 -12 -28 -12 -28 2 0 8 9 15 19 15 11 0 23 5 27 12 5 7 2 9 -8 5 -9 -3
-20 -2 -25 3 -6 4 -9 5 -7 3z m29 -73 c-3 -5 -14 -10 -23 -10 -15 0 -15 2 -2
10 20 13 33 13 25 0z"/>
<path d="M3395 1850 c-3 -6 1 -7 9 -4 18 7 21 14 7 14 -6 0 -13 -4 -16 -10z"/>
<path d="M1170 1840 c-12 -8 -9 -10 13 -10 16 0 26 4 22 10 -8 12 -16 12 -35
0z"/>
<path d="M1595 1830 c-18 -20 -18 -20 11 -19 20 1 23 3 10 6 -15 4 -16 7 -5
13 7 5 11 11 8 15 -3 3 -14 -4 -24 -15z"/>
<path d="M1800 1839 c0 -5 5 -7 10 -4 6 3 10 8 10 11 0 2 -4 4 -10 4 -5 0 -10
-5 -10 -11z"/>
<path d="M1969 1826 c6 -7 7 -16 3 -21 -4 -4 0 -6 8 -3 24 7 23 33 0 35 -17 1
-19 -1 -11 -11z"/>
<path d="M845 1820 c-11 -5 -29 -11 -39 -14 -10 -4 -17 -8 -14 -11 7 -8 78 15
78 25 0 6 -1 10 -2 9 -2 0 -12 -4 -23 -9z"/>
<path d="M890 1821 c0 -17 18 -21 24 -6 3 9 0 15 -9 15 -8 0 -15 -4 -15 -9z"/>
<path d="M925 1810 c-3 -5 -1 -10 4 -10 6 0 11 5 11 10 0 6 -2 10 -4 10 -3 0
-8 -4 -11 -10z"/>
<path d="M1792 1812 c-21 -14 22 -55 49 -47 21 7 21 7 -6 31 -16 13 -29 24
-29 24 -1 0 -7 -4 -14 -8z"/>
<path d="M1170 1798 c14 -5 33 -14 42 -19 26 -13 29 -11 16 11 -9 14 -23 20
-48 19 -34 0 -34 -1 -10 -11z"/>
<path d="M1020 1791 c0 -5 7 -12 16 -15 8 -3 12 -11 8 -17 -5 -8 -3 -9 7 -4 7
5 22 10 32 10 10 1 22 8 27 15 5 9 9 9 13 1 3 -7 5 -7 3 1 -1 7 -11 15 -21 16
-10 3 -15 0 -11 -7 5 -7 -4 -11 -23 -11 -17 0 -31 5 -31 10 0 6 -4 10 -10 10
-5 0 -10 -4 -10 -9z"/>
<path d="M1540 1784 c-24 -13 -24 -14 -3 -14 30 0 54 10 47 21 -7 11 -13 10
-44 -7z"/>
<path d="M1960 1784 l-34 -15 27 -23 27 -23 -32 -9 c-38 -9 -54 -9 -122 2 -36
5 -47 4 -42 -4 4 -7 13 -12 21 -12 7 0 15 -5 17 -11 2 -7 12 -7 30 0 23 9 28
7 33 -10 4 -10 11 -17 16 -14 5 4 9 3 9 -2 0 -16 71 -8 81 10 8 14 6 17 -11
17 -35 0 -12 19 31 26 44 7 51 19 16 28 -14 3 -23 13 -23 25 0 11 4 17 8 15 4
-3 8 0 8 5 0 15 -18 13 -60 -5z"/>
<path d="M880 1775 c-15 -18 -16 -17 29 -33 24 -8 37 -8 41 -1 4 5 20 8 36 5
l29 -6 -26 12 c-25 12 -28 16 -30 36 0 4 -5 -4 -11 -18 l-10 -25 -15 23 c-18
26 -26 27 -43 7z"/>
<path d="M1151 1774 c0 -11 3 -14 6 -6 3 7 2 16 -1 19 -3 4 -6 -2 -5 -13z"/>
<path d="M1665 1780 c-26 -10 -49 -37 -38 -43 5 -3 24 8 43 24 35 28 33 35 -5
19z"/>
<path d="M2064 1779 c-7 -13 15 -31 28 -22 5 2 16 -1 25 -9 13 -10 17 -10 20
0 3 6 12 12 21 12 26 0 4 13 -26 15 -15 1 -33 -3 -41 -9 -12 -9 -13 -7 -8 7 7
19 -8 24 -19 6z"/>
<path d="M664 1766 c-3 -8 -12 -12 -20 -9 -8 3 -14 0 -14 -6 0 -6 11 -11 25
-11 15 0 25 6 25 14 0 8 6 17 13 19 7 3 5 6 -6 6 -10 1 -20 -5 -23 -13z"/>
<path d="M3670 1767 c0 -7 11 -14 25 -15 14 -1 25 3 25 9 0 6 -7 9 -15 5 -8
-3 -15 -1 -15 4 0 6 -4 10 -10 10 -5 0 -10 -6 -10 -13z"/>
<path d="M3560 1760 c-13 -8 -12 -10 3 -10 9 0 17 5 17 10 0 12 -1 12 -20 0z"/>
<path d="M3606 1755 c-16 -12 -17 -15 -4 -15 8 0 21 7 28 15 16 19 1 19 -24 0z"/>
<path d="M1837 1748 c-3 -9 3 -14 14 -14 11 0 18 5 16 10 -5 16 -24 18 -30 4z"/>
<path d="M1230 1743 c0 -7 -8 -13 -17 -14 -16 0 -15 -1 2 -8 18 -7 18 -8 1
-18 -10 -6 -15 -13 -10 -16 15 -9 44 38 33 54 -6 10 -9 10 -9 2z"/>
<path d="M1440 1741 c0 -5 -17 -16 -37 -24 -29 -11 -42 -12 -53 -4 -8 7 -6 2
4 -11 15 -17 22 -19 28 -10 6 10 8 10 8 -1 0 -9 6 -7 19 8 11 12 21 17 23 11
2 -8 11 -8 28 -1 l25 10 -24 0 c-20 1 -21 3 -11 16 9 10 9 15 1 15 -6 0 -11
-4 -11 -9z"/>
<path d="M1507 1741 c-17 -6 -16 -8 7 -19 14 -6 28 -7 31 -3 8 14 -18 29 -38
22z"/>
<path d="M3380 1740 c0 -5 -14 -10 -31 -10 -17 0 -28 -4 -24 -10 3 -5 12 -7
20 -3 8 3 15 0 15 -6 0 -6 -7 -11 -15 -11 -8 0 -19 -10 -26 -22 -12 -22 -14
-22 36 -2 10 4 13 0 10 -17 -4 -17 -2 -20 7 -11 18 18 58 15 58 -4 0 -8 4 -13
9 -10 13 9 -11 54 -32 60 -9 2 -15 1 -12 -4 3 -4 -3 -14 -13 -21 -15 -13 -16
-12 -3 4 10 13 10 17 1 17 -9 0 -10 3 -1 14 6 7 22 11 36 8 14 -2 25 0 25 5 0
17 -13 23 -27 12 -10 -9 -13 -8 -13 5 0 9 -4 16 -10 16 -5 0 -10 -4 -10 -10z"/>
<path d="M3460 1739 c0 -14 20 -20 36 -11 14 8 12 10 -10 14 -14 3 -26 2 -26
-3z"/>
<path d="M358 1733 c7 -3 16 -2 19 1 4 3 -2 6 -13 5 -11 0 -14 -3 -6 -6z"/>
<path d="M710 1735 c0 -14 51 -55 69 -55 32 0 35 19 4 30 -15 6 -36 15 -45 20
-20 11 -28 13 -28 5z"/>
<path d="M1140 1730 c0 -5 5 -10 11 -10 5 0 7 5 4 10 -3 6 -8 10 -11 10 -2 0
-4 -4 -4 -10z"/>
<path d="M1600 1715 c-7 -9 -11 -17 -9 -20 3 -2 10 5 17 15 14 24 10 26 -8 5z"/>
<path d="M1665 1705 c-26 -21 -28 -24 -10 -25 11 0 26 9 33 21 19 30 11 32
-23 4z"/>
<path d="M468 1690 l4 -30 23 22 c13 12 21 26 18 31 -3 5 -9 4 -13 -3 -5 -9
-9 -9 -14 -1 -13 21 -23 11 -18 -19z"/>
<path d="M1030 1716 c0 -2 7 -7 16 -10 8 -3 12 -2 9 4 -6 10 -25 14 -25 6z"/>
<path d="M1087 1714 c-4 -4 -7 -14 -7 -23 0 -11 3 -12 11 -4 6 6 10 16 7 23
-2 6 -7 8 -11 4z"/>
<path d="M1291 1717 c2 -1 13 -9 24 -17 19 -14 19 -14 6 3 -7 9 -18 17 -24 17
-6 0 -8 -1 -6 -3z"/>
<path d="M1710 1701 c-6 -12 -7 -21 -1 -21 10 0 24 30 17 37 -2 3 -9 -5 -16
-16z"/>
<path d="M3495 1709 c-4 -6 -5 -12 -2 -15 7 -7 37 7 37 17 0 13 -27 11 -35 -2z"/>
<path d="M600 1700 c20 -13 53 -13 45 0 -3 6 -18 10 -33 10 -21 0 -24 -2 -12
-10z"/>
<path d="M1121 1694 c0 -11 3 -14 6 -6 3 7 2 16 -1 19 -3 4 -6 -2 -5 -13z"/>
<path d="M1175 1700 c3 -5 8 -10 11 -10 2 0 4 5 4 10 0 6 -5 10 -11 10 -5 0
-7 -4 -4 -10z"/>
<path d="M2320 1700 c0 -5 9 -14 20 -20 20 -11 26 -4 12 15 -10 14 -32 17 -32
5z"/>
<path d="M392 1692 c-10 -7 -8 -12 5 -25 17 -14 18 -14 18 9 0 26 -3 28 -23
16z"/>
<path d="M1263 1689 c14 -8 22 -8 30 0 8 8 3 11 -18 11 -26 -1 -28 -2 -12 -11z"/>
<path d="M3620 1691 c0 -19 20 -22 36 -7 14 15 13 16 -10 16 -14 0 -26 -4 -26
-9z"/>
<path d="M690 1683 c0 -19 21 -27 33 -13 9 10 9 11 -2 5 -8 -4 -17 -2 -22 6
-6 9 -9 10 -9 2z"/>
<path d="M660 1670 c0 -5 5 -10 11 -10 5 0 7 5 4 10 -3 6 -8 10 -11 10 -2 0
-4 -4 -4 -10z"/>
<path d="M1155 1670 c3 -5 8 -10 11 -10 2 0 4 5 4 10 0 6 -5 10 -11 10 -5 0
-7 -4 -4 -10z"/>
<path d="M1301 1677 c2 -1 12 -9 22 -16 15 -12 17 -12 11 3 -3 9 -13 16 -22
16 -8 0 -13 -1 -11 -3z"/>
<path d="M1470 1669 c0 -5 5 -7 10 -4 6 3 10 8 10 11 0 2 -4 4 -10 4 -5 0 -10
-5 -10 -11z"/>
<path d="M2251 1658 c-9 -15 -10 -23 -2 -31 8 -8 11 -4 11 14 0 19 2 21 10 9
8 -13 10 -13 10 2 0 26 -15 29 -29 6z"/>
<path d="M641 1659 c-1 -21 25 -44 34 -29 3 5 -1 10 -9 10 -8 0 -17 8 -19 18
-4 14 -5 14 -6 1z"/>
<path d="M2208 1663 c-10 -2 -18 -9 -18 -14 0 -5 -7 -9 -15 -9 -8 0 -15 5 -15
10 0 6 -5 10 -11 10 -5 0 -7 -4 -4 -10 3 -5 2 -10 -3 -10 -6 0 -8 -9 -5 -19 4
-16 9 -18 36 -10 40 11 40 11 31 -3 -4 -8 -2 -8 7 1 11 11 12 14 1 18 -10 4
-9 9 4 24 9 10 15 18 13 18 -2 -1 -12 -3 -21 -6z"/>
<path d="M796 1651 c-4 -7 -5 -15 -2 -18 9 -9 19 4 14 18 -4 11 -6 11 -12 0z"/>
<path d="M1420 1656 c0 -2 7 -6 15 -10 8 -3 15 -1 15 4 0 6 -7 10 -15 10 -8 0
-15 -2 -15 -4z"/>
<path d="M1666 1645 c-14 -8 -26 -11 -26 -7 0 3 -7 -4 -16 -16 -13 -18 -19
-21 -30 -11 -12 9 -13 9 -9 -3 7 -17 -52 -48 -93 -48 -24 -1 -25 -2 -8 -11 15
-9 16 -13 5 -21 -10 -6 -6 -7 11 -2 14 3 32 13 41 20 13 12 16 12 16 -1 0 -8
-4 -15 -9 -15 -4 0 -8 -4 -8 -10 0 -17 20 -11 27 8 5 15 75 88 81 84 11 -8 20
1 15 15 -5 12 -2 15 8 11 8 -3 23 -2 33 2 16 5 17 7 4 12 -9 4 -27 0 -42 -7z"/>
<path d="M3675 1649 c-12 -19 5 -23 22 -6 16 16 16 17 1 17 -9 0 -20 -5 -23
-11z"/>
<path d="M2601 1636 c-6 -7 -24 -16 -39 -19 -19 -4 -28 -12 -28 -26 0 -11 4
-17 9 -14 5 3 6 -4 2 -16 -4 -12 -2 -21 4 -21 6 0 10 6 9 13 -4 18 60 21 87 3
15 -10 26 -12 30 -6 3 6 2 10 -3 10 -4 0 -15 16 -22 35 -18 46 -34 59 -49 41z"/>
<path d="M493 1633 c1 -5 -2 -10 -8 -11 -5 -2 -16 -8 -22 -14 -9 -7 -13 -7
-13 1 0 6 -4 11 -9 11 -5 0 -7 -8 -4 -18 3 -13 15 -18 44 -19 21 -1 39 3 39 8
0 19 28 39 47 33 15 -5 15 -4 3 5 -17 12 -81 15 -77 4z"/>
<path d="M3495 1624 c9 -9 18 -14 21 -11 9 9 -6 27 -22 27 -13 0 -13 -2 1 -16z"/>
<path d="M380 1621 c0 -5 5 -13 10 -16 6 -3 10 -2 10 4 0 5 -4 13 -10 16 -5 3
-10 2 -10 -4z"/>
<path d="M1470 1621 c0 -6 4 -13 10 -16 6 -3 7 1 4 9 -7 18 -14 21 -14 7z"/>
<path d="M2935 1620 c-13 -6 -15 -9 -5 -9 8 0 22 4 30 9 18 12 2 12 -25 0z"/>
<path d="M2340 1612 c0 -13 29 -48 30 -35 0 6 -5 15 -10 18 -6 4 -8 11 -5 16
4 5 1 9 -4 9 -6 0 -11 -4 -11 -8z"/>
<path d="M2461 1604 c0 -11 3 -14 6 -6 3 7 2 16 -1 19 -3 4 -6 -2 -5 -13z"/>
<path d="M612 1601 c4 -13 18 -16 19 -4 0 4 -5 9 -11 12 -7 2 -11 -2 -8 -8z"/>
<path d="M840 1600 c0 -5 5 -10 11 -10 5 0 7 5 4 10 -3 6 -8 10 -11 10 -2 0
-4 -4 -4 -10z"/>
<path d="M1860 1595 c6 -7 20 -15 31 -18 16 -4 18 -3 9 8 -6 7 -20 15 -31 18
-16 4 -18 3 -9 -8z"/>
<path d="M696 1586 c3 -9 11 -16 16 -16 13 0 5 23 -10 28 -7 2 -10 -2 -6 -12z"/>
<path d="M409 1572 c13 -25 31 -38 31 -23 0 6 -4 11 -10 11 -5 0 -9 5 -7 11 1
6 -4 14 -11 16 -11 4 -12 1 -3 -15z"/>
<path d="M3390 1580 c0 -5 5 -10 11 -10 5 0 7 5 4 10 -3 6 -8 10 -11 10 -2 0
-4 -4 -4 -10z"/>
<path d="M460 1570 c-13 -8 -12 -10 3 -10 9 0 17 5 17 10 0 12 -1 12 -20 0z"/>
<path d="M580 1569 c0 -5 5 -7 10 -4 6 3 10 8 10 11 0 2 -4 4 -10 4 -5 0 -10
-5 -10 -11z"/>
<path d="M1639 1549 c-24 -26 -27 -39 -9 -39 7 0 43 60 38 65 -1 1 -15 -10
-29 -26z"/>
<path d="M3477 1560 c9 -35 28 -42 49 -17 10 12 15 19 10 15 -5 -4 -21 -1 -36
7 -26 14 -28 13 -23 -5z"/>
<path d="M1700 1558 c0 -6 -7 -20 -17 -30 -19 -22 -6 -23 21 -3 16 12 22 12
28 2 6 -9 8 -8 8 4 0 16 -19 39 -32 39 -4 0 -8 -5 -8 -12z"/>
<path d="M3585 1560 c-3 -5 3 -10 15 -10 12 0 18 5 15 10 -3 6 -10 10 -15 10
-5 0 -12 -4 -15 -10z"/>
<path d="M450 1530 c0 -19 3 -21 12 -12 9 9 9 15 0 24 -9 9 -12 7 -12 -12z"/>
<path d="M739 1529 c6 -18 21 -28 21 -14 0 3 0 9 0 14 0 5 -7 11 -14 14 -11 5
-13 1 -7 -14z"/>
<path d="M1894 1539 c-3 -6 -1 -16 5 -22 8 -8 11 -5 11 11 0 24 -5 28 -16 11z"/>
<path d="M1930 1546 c0 -14 56 -55 75 -55 17 1 15 3 -7 12 -14 7 -36 21 -47
31 -12 11 -21 16 -21 12z"/>
<path d="M589 1533 c0 -5 -2 -19 -3 -31 -2 -13 -9 -28 -17 -33 -12 -7 -11 -9
2 -9 9 0 27 9 40 20 15 12 19 19 10 20 -10 0 -11 3 -2 14 9 11 8 15 -5 20 -20
8 -24 8 -25 -1z"/>
<path d="M2980 1530 c20 -13 33 -13 25 0 -3 6 -14 10 -23 10 -15 0 -15 -2 -2
-10z"/>
<path d="M500 1520 c0 -6 7 -10 15 -10 8 0 15 2 15 4 0 2 -7 6 -15 10 -8 3
-15 1 -15 -4z"/>
<path d="M1440 1526 c0 -2 7 -7 16 -10 8 -3 12 -2 9 4 -6 10 -25 14 -25 6z"/>
<path d="M1583 1515 c-17 -18 12 -44 29 -27 9 9 9 12 1 12 -6 0 -13 6 -15 14
-2 12 -5 12 -15 1z"/>
<path d="M3080 1521 c0 -6 4 -13 10 -16 6 -3 7 1 4 9 -7 18 -14 21 -14 7z"/>
<path d="M400 1505 c0 -8 7 -15 15 -15 9 0 12 6 9 15 -4 8 -10 15 -15 15 -5 0
-9 -7 -9 -15z"/>
<path d="M2860 1510 c-13 -8 -12 -10 3 -10 9 0 17 5 17 10 0 12 -1 12 -20 0z"/>
<path d="M2820 1500 c0 -5 5 -10 10 -10 6 0 10 5 10 10 0 6 -4 10 -10 10 -5 0
-10 -4 -10 -10z"/>
<path d="M2936 1501 c-3 -5 8 -11 25 -15 45 -9 71 -7 64 4 -3 5 -11 7 -19 4
-7 -3 -24 0 -39 5 -14 6 -29 6 -31 2z"/>
<path d="M340 1484 c0 -8 5 -12 10 -9 6 4 8 11 5 16 -9 14 -15 11 -15 -7z"/>
<path d="M789 1483 c-8 -9 -9 -14 -2 -10 6 4 13 4 16 0 2 -5 2 -3 1 4 -2 6 2
14 9 17 8 3 8 5 1 5 -6 1 -18 -7 -25 -16z"/>
<path d="M3210 1490 c0 -5 7 -7 16 -3 13 5 15 1 10 -18 -7 -23 -6 -23 8 -5 9
11 22 23 28 28 8 4 -2 8 -24 8 -21 0 -38 -4 -38 -10z"/>
<path d="M1915 1480 c-3 -5 -2 -10 4 -10 5 0 13 5 16 10 3 6 2 10 -4 10 -5 0
-13 -4 -16 -10z"/>
<path d="M3034 1467 c-11 -12 -12 -16 -4 -10 9 6 28 10 43 9 32 -4 32 15 0 20
-12 2 -28 -6 -39 -19z"/>
<path d="M825 1469 c-11 -17 1 -21 15 -4 8 9 8 15 2 15 -6 0 -14 -5 -17 -11z"/>
<path d="M1674 1465 c-18 -14 -18 -14 4 -8 12 3 22 9 22 14 0 12 -3 11 -26 -6z"/>
<path d="M2819 1463 c-13 -16 -12 -17 4 -4 9 7 17 15 17 17 0 8 -8 3 -21 -13z"/>
<path d="M2940 1460 c-13 -8 -12 -10 3 -10 9 0 17 5 17 10 0 12 -1 12 -20 0z"/>
<path d="M1485 1450 c-3 -5 -12 -7 -19 -4 -16 6 -30 -22 -16 -31 6 -4 10 -2
10 3 0 5 12 7 28 4 24 -5 25 -3 14 11 -11 13 -10 16 5 20 16 4 16 5 1 6 -9 0
-19 -3 -23 -9z"/>
<path d="M2588 1453 c7 -3 16 -2 19 1 4 3 -2 6 -13 5 -11 0 -14 -3 -6 -6z"/>
<path d="M3378 1453 c7 -3 16 -2 19 1 4 3 -2 6 -13 5 -11 0 -14 -3 -6 -6z"/>
<path d="M1520 1428 c0 -6 3 -8 7 -5 3 4 12 -1 19 -11 7 -9 16 -14 20 -10 9
10 -15 38 -32 38 -8 0 -14 -5 -14 -12z"/>
<path d="M2812 1424 c10 -10 20 -16 22 -13 3 3 -5 11 -17 18 -21 13 -21 12 -5
-5z"/>
<path d="M3316 1425 c-4 -11 -19 -14 -57 -12 -46 2 -54 -1 -68 -23 -8 -14 -20
-28 -26 -32 -6 -5 -6 -8 2 -8 6 0 15 5 18 10 4 6 10 8 14 6 4 -3 22 4 41 15
18 12 36 16 39 11 3 -5 16 -13 29 -17 19 -5 23 -3 20 11 -2 11 6 23 19 29 25
13 21 25 -8 25 -9 0 -19 -7 -23 -15z m-103 -40 c-3 -9 -8 -14 -10 -11 -3 3 -2
9 2 15 9 16 15 13 8 -4z"/>
<path d="M1720 1415 c-8 -9 -8 -15 -2 -15 12 0 26 19 19 26 -2 2 -10 -2 -17
-11z"/>
<path d="M3136 1415 c-3 -8 3 -19 12 -24 14 -7 18 -5 19 9 2 22 -23 34 -31 15z"/>
<path d="M1885 1410 c-3 -6 1 -7 9 -4 18 7 21 14 7 14 -6 0 -13 -4 -16 -10z"/>
<path d="M1090 1401 c0 -5 7 -11 15 -15 8 -3 15 -1 15 3 0 5 -7 11 -15 15 -8
3 -15 1 -15 -3z"/>
<path d="M3365 1400 c3 -5 13 -10 21 -10 8 0 12 5 9 10 -3 6 -13 10 -21 10 -8
0 -12 -4 -9 -10z"/>
<path d="M3416 1395 c4 -8 8 -15 10 -15 2 0 4 7 4 15 0 8 -4 15 -10 15 -5 0
-7 -7 -4 -15z"/>
<path d="M1410 1390 c-8 -5 -10 -10 -5 -11 6 0 18 -2 27 -4 9 -2 22 3 29 11 9
11 7 14 -12 14 -13 0 -31 -5 -39 -10z"/>
<path d="M1820 1392 c0 -13 39 -32 55 -26 14 6 13 8 -2 20 -20 15 -53 19 -53
6z"/>
<path d="M1187 1366 c-21 -16 -23 -38 -2 -30 8 4 13 10 10 14 -3 5 1 10 7 13
7 2 11 7 8 10 -3 3 -13 0 -23 -7z"/>
<path d="M3130 1365 c-7 -9 -8 -15 -2 -15 5 0 12 7 16 15 3 8 4 15 2 15 -2 0
-9 -7 -16 -15z"/>
<path d="M3480 1367 c0 -15 36 -48 44 -40 13 13 5 30 -19 41 -19 9 -25 9 -25
-1z"/>
<path d="M3595 1370 c-4 -6 -12 -9 -19 -7 -6 3 -17 -2 -24 -9 -12 -14 -12 -15
7 -18 5 0 13 -4 17 -8 4 -4 13 4 21 19 13 26 12 45 -2 23z"/>
<path d="M3630 1370 c0 -5 5 -10 11 -10 5 0 7 5 4 10 -3 6 -8 10 -11 10 -2 0
-4 -4 -4 -10z"/>
<path d="M1378 1363 c7 -3 16 -2 19 1 4 3 -2 6 -13 5 -11 0 -14 -3 -6 -6z"/>
<path d="M2100 1361 c-8 -6 -18 -7 -23 -4 -5 3 -3 -5 4 -18 9 -18 13 -20 17
-9 3 8 9 21 15 28 11 14 7 15 -13 3z"/>
<path d="M3352 1345 c-15 -8 -20 -15 -12 -20 6 -4 17 -2 24 5 10 7 15 8 18 0
2 -7 13 -7 36 1 36 12 43 29 12 29 -11 0 -20 -5 -20 -12 0 -9 -3 -9 -12 0 -14
14 -16 14 -46 -3z"/>
<path d="M3460 1348 c0 -9 5 -20 10 -23 13 -8 13 5 0 25 -8 13 -10 13 -10 -2z"/>
<path d="M1873 1328 c-15 -17 -15 -18 1 -18 9 0 19 -7 23 -16 10 -26 48 -35
82 -18 17 9 31 18 31 21 0 4 -3 3 -7 0 -3 -4 -12 -2 -20 4 -9 9 -13 8 -13 0 0
-20 -67 -9 -73 12 -1 3 7 13 18 21 20 15 20 15 -3 13 -13 -1 -30 -9 -39 -19z"/>
<path d="M1317 1329 c7 -7 15 -10 18 -7 3 3 -2 9 -12 12 -14 6 -15 5 -6 -5z"/>
<path d="M1418 1323 c7 -3 16 -2 19 1 4 3 -2 6 -13 5 -11 0 -14 -3 -6 -6z"/>
<path d="M3606 1321 c-3 -5 1 -14 9 -21 13 -11 20 -10 40 0 14 7 25 17 25 22
0 11 -67 10 -74 -1z"/>
<path d="M1357 1303 c6 -15 19 -15 48 -3 21 9 18 10 -26 14 -18 1 -25 -3 -22
-11z"/>
<path d="M2895 1310 c3 -5 8 -10 11 -10 2 0 4 5 4 10 0 6 -5 10 -11 10 -5 0
-7 -4 -4 -10z"/>
<path d="M3490 1311 c0 -10 19 -25 25 -20 1 2 -3 10 -11 17 -8 7 -14 8 -14 3z"/>
<path d="M1146 1301 c-5 -7 -19 -11 -33 -8 -18 3 -23 1 -19 -10 3 -8 6 -19 6
-24 0 -14 26 -10 40 6 7 9 21 13 31 10 21 -7 55 20 39 30 -5 3 -10 1 -10 -4 0
-15 -37 -14 -42 1 -3 9 -6 9 -12 -1z"/>
<path d="M1244 1297 c-4 -7 -4 -9 1 -5 5 5 16 -5 26 -21 14 -24 22 -28 46 -23
25 6 26 7 5 10 -12 2 -26 12 -32 22 -12 23 -37 32 -46 17z"/>
<path d="M2077 1292 c3 -14 -4 -23 -27 -34 -19 -9 -28 -18 -21 -22 6 -4 18 0
27 8 8 9 24 16 35 16 10 0 19 4 19 9 0 5 3 18 6 28 5 14 4 15 -4 4 -8 -12 -13
-12 -25 -2 -13 10 -15 9 -10 -7z"/>
<path d="M3100 1284 c-13 -33 -13 -37 3 -23 12 12 21 49 11 49 -2 0 -9 -12
-14 -26z"/>
<path d="M3145 1300 c-17 -7 -11 -12 11 -9 4 0 10 -5 15 -12 10 -17 23 -4 16
16 -7 17 -13 18 -42 5z"/>
<path d="M3693 1303 c-9 -3 -10 -9 -1 -23 10 -15 14 -16 25 -5 7 8 13 16 13
18 0 8 -24 14 -37 10z"/>
<path d="M1610 1280 c-8 -5 -11 -12 -7 -16 4 -4 15 0 24 9 18 18 8 23 -17 7z"/>
<path d="M3315 1280 c-3 -5 -2 -10 4 -10 5 0 13 5 16 10 3 6 2 10 -4 10 -5 0
-13 -4 -16 -10z"/>
<path d="M2990 1273 c0 -6 -10 -14 -22 -18 -16 -4 -19 -8 -10 -12 16 -6 49 23
39 33 -4 4 -7 3 -7 -3z"/>
<path d="M3285 1270 c3 -5 8 -10 11 -10 2 0 4 5 4 10 0 6 -5 10 -11 10 -5 0
-7 -4 -4 -10z"/>
<path d="M3656 1271 c-3 -5 0 -11 8 -14 15 -6 26 1 26 15 0 11 -27 10 -34 -1z"/>
<path d="M1410 1235 c-24 -25 -47 -35 -34 -13 5 8 2 9 -10 5 -10 -4 -23 -7
-29 -8 -7 0 -2 -4 11 -10 13 -5 21 -13 17 -19 -4 -6 1 -7 11 -3 13 5 15 3 9
-8 -4 -8 -5 -11 -1 -7 4 3 7 8 5 10 -6 8 23 48 35 48 7 0 13 7 13 15 0 19 1
19 -27 -10z"/>
<path d="M2123 1250 c-15 -6 -21 -15 -17 -25 9 -23 27 -18 41 10 12 27 10 28
-24 15z"/>
<path d="M1240 1240 c8 -5 22 -9 30 -9 10 0 8 3 -5 9 -27 12 -43 12 -25 0z"/>
<path d="M1520 1239 c0 -5 5 -7 10 -4 6 3 10 8 10 11 0 2 -4 4 -10 4 -5 0 -10
-5 -10 -11z"/>
<path d="M1474 1224 c3 -9 6 -19 6 -22 0 -9 20 21 20 31 0 4 -7 7 -16 7 -11 0
-14 -5 -10 -16z"/>
<path d="M2215 1224 l-20 -16 20 3 c26 3 75 -11 75 -21 0 -5 -8 -10 -17 -13
-14 -3 -11 -7 11 -16 20 -8 32 -9 40 -1 7 7 6 10 -3 10 -9 0 -11 8 -6 28 5 21
4 24 -6 15 -9 -9 -17 -8 -37 7 -29 24 -31 24 -57 4z"/>
<path d="M3107 1234 c-8 -8 1 -24 13 -24 4 0 10 7 14 15 5 15 -14 21 -27 9z"/>
<path d="M3338 1233 c6 -2 18 -2 25 0 6 3 1 5 -13 5 -14 0 -19 -2 -12 -5z"/>
<path d="M2010 1216 c0 -8 4 -17 9 -20 5 -4 7 3 4 14 -6 23 -13 26 -13 6z"/>
<path d="M1026 1203 c-6 -14 -5 -15 5 -6 7 7 10 15 7 18 -3 3 -9 -2 -12 -12z"/>
<path d="M1230 1206 c0 -8 4 -17 9 -20 5 -4 7 3 4 14 -6 23 -13 26 -13 6z"/>
<path d="M1580 1211 c0 -5 -8 -12 -17 -14 -15 -4 -15 -5 -2 -6 9 0 22 6 29 14
9 10 9 15 1 15 -6 0 -11 -4 -11 -9z"/>
<path d="M1434 1202 c-6 -4 -13 -17 -16 -29 -5 -17 -2 -23 11 -23 9 0 23 -9
31 -20 21 -29 30 -25 28 15 -1 34 -6 38 -38 36 -10 0 -11 1 -2 5 13 6 17 24 5
24 -5 0 -13 -4 -19 -8z"/>
<path d="M1505 1200 c-3 -5 -1 -10 4 -10 6 0 11 5 11 10 0 6 -2 10 -4 10 -3 0
-8 -4 -11 -10z"/>
<path d="M2162 1198 c-17 -17 -15 -24 8 -25 11 -1 20 2 20 8 0 5 -5 9 -11 9
-5 0 -7 5 -4 10 8 14 2 13 -13 -2z"/>
<path d="M3080 1200 c-8 -5 -12 -12 -9 -15 4 -3 12 1 19 10 14 17 11 19 -10 5z"/>
<path d="M3336 1194 c-10 -25 -1 -27 19 -4 15 17 16 20 3 20 -9 0 -19 -7 -22
-16z"/>
<path d="M932 1182 c-52 -20 -50 -35 7 -38 34 -2 41 1 39 14 -1 10 1 23 5 30
10 15 2 14 -51 -6z"/>
<path d="M2071 1193 c-1 -7 -4 -12 -8 -10 -5 1 -8 -2 -8 -8 0 -5 6 -9 13 -8 9
0 11 -5 7 -15 -5 -13 -4 -14 6 -5 9 9 10 18 1 35 -6 13 -11 17 -11 11z"/>
<path d="M3393 1193 c-7 -3 -13 -11 -13 -19 0 -8 -4 -14 -10 -14 -15 0 -12
-17 5 -24 8 -3 14 -2 14 2 -4 22 3 32 21 32 11 0 20 4 20 9 0 11 -21 19 -37
14z"/>
<path d="M3590 1185 c-24 -14 -24 -14 -3 -15 12 0 25 5 28 11 11 17 2 18 -25
4z"/>
<path d="M739 1173 c-13 -15 -12 -15 9 -4 23 12 28 21 13 21 -5 0 -15 -7 -22
-17z"/>
<path d="M998 1163 c7 -3 16 -2 19 1 4 3 -2 6 -13 5 -11 0 -14 -3 -6 -6z"/>
<path d="M1281 1148 c7 -16 17 -24 25 -21 16 6 18 19 4 28 -5 3 -10 1 -10 -6
0 -7 -7 -4 -15 7 -14 18 -15 17 -4 -8z"/>
<path d="M3080 1159 c0 -5 5 -7 10 -4 6 3 10 8 10 11 0 2 -4 4 -10 4 -5 0 -10
-5 -10 -11z"/>
<path d="M651 1143 c-1 -16 5 -23 17 -23 10 0 13 3 6 8 -6 4 -14 14 -17 22 -4
10 -6 8 -6 -7z"/>
<path d="M1240 1150 c0 -5 5 -10 11 -10 5 0 7 5 4 10 -3 6 -8 10 -11 10 -2 0
-4 -4 -4 -10z"/>
<path d="M865 1140 c-3 -5 -1 -10 4 -10 6 0 11 5 11 10 0 6 -2 10 -4 10 -3 0
-8 -4 -11 -10z"/>
<path d="M2480 1140 c0 -5 5 -10 11 -10 5 0 7 5 4 10 -3 6 -8 10 -11 10 -2 0
-4 -4 -4 -10z"/>
<path d="M3038 1143 c7 -3 16 -2 19 1 4 3 -2 6 -13 5 -11 0 -14 -3 -6 -6z"/>
<path d="M3470 1131 c0 -26 34 -61 59 -61 14 1 14 2 -1 14 -10 7 -15 16 -12
19 4 3 -1 13 -10 22 -9 9 -16 13 -16 8 0 -4 -5 -1 -10 7 -8 12 -10 10 -10 -9z"/>
<path d="M3513 1137 c2 -7 20 -12 41 -13 44 -1 41 5 -9 16 -26 6 -35 5 -32 -3z"/>
<path d="M1008 1133 c7 -3 16 -2 19 1 4 3 -2 6 -13 5 -11 0 -14 -3 -6 -6z"/>
<path d="M1395 1130 c-10 -16 4 -30 31 -30 28 0 30 6 10 26 -17 16 -32 18 -41
4z"/>
<path d="M2190 1117 c0 -7 5 -18 12 -25 6 -6 8 -15 4 -19 -4 -4 -11 -1 -16 7
-8 13 -10 13 -10 -2 0 -23 -53 -8 -60 18 -5 19 -40 30 -40 12 0 -6 -7 -8 -15
-5 -8 4 -17 2 -20 -3 -3 -4 11 -14 30 -20 20 -7 32 -16 29 -22 -5 -7 2 -9 21
-4 21 5 26 4 22 -6 -4 -11 6 -12 49 -4 49 9 75 26 40 26 -8 0 -17 14 -21 30
-7 30 -25 42 -25 17z"/>
<path d="M2330 1116 c0 -18 37 -49 49 -41 6 3 11 -1 11 -10 0 -12 5 -15 16
-11 9 3 20 6 25 6 17 0 9 19 -11 25 -11 3 -27 13 -35 21 -20 20 -55 26 -55 10z"/>
<path d="M2520 1120 c0 -5 5 -10 11 -10 5 0 7 5 4 10 -3 6 -8 10 -11 10 -2 0
-4 -4 -4 -10z"/>
<path d="M2830 1120 c0 -5 5 -10 10 -10 6 0 10 5 10 10 0 6 -4 10 -10 10 -5 0
-10 -4 -10 -10z"/>
<path d="M3310 1120 c-8 -5 -12 -11 -9 -14 2 -3 11 -1 19 4 8 5 12 11 9 14 -2
3 -11 1 -19 -4z"/>
<path d="M3417 1123 c-4 -3 -7 -11 -7 -17 0 -6 5 -5 12 2 6 6 9 14 7 17 -3 3
-9 2 -12 -2z"/>
<path d="M3358 1113 c7 -3 16 -2 19 1 4 3 -2 6 -13 5 -11 0 -14 -3 -6 -6z"/>
<path d="M3436 1104 c-4 -10 -1 -14 6 -12 15 5 23 28 10 28 -5 0 -13 -7 -16
-16z"/>
<path d="M3590 1110 c-9 -6 -7 -10 9 -15 27 -8 33 -4 16 12 -6 6 -18 7 -25 3z"/>
<path d="M1030 1105 c0 -2 10 -10 23 -16 20 -11 21 -11 8 4 -13 16 -31 23 -31
12z"/>
<path d="M875 1089 c-11 -17 1 -21 15 -4 8 9 8 15 2 15 -6 0 -14 -5 -17 -11z"/>
<path d="M1188 1093 c7 -3 16 -2 19 1 4 3 -2 6 -13 5 -11 0 -14 -3 -6 -6z"/>
<path d="M2660 1081 c0 -25 6 -27 13 -6 4 8 2 17 -3 20 -6 4 -10 -3 -10 -14z"/>
<path d="M2766 1073 c10 -8 18 -16 17 -18 -10 -18 0 -26 12 -11 21 28 19 33
-17 38 -29 5 -30 4 -12 -9z"/>
<path d="M2280 1055 c14 -7 27 -11 30 -9 6 7 -22 24 -40 23 -9 0 -5 -6 10 -14z"/>
<path d="M3465 1060 c-3 -5 -2 -10 4 -10 5 0 18 -3 28 -7 16 -6 16 -5 4 10
-15 19 -27 22 -36 7z"/>
<path d="M2219 1024 c-12 -15 -11 -16 11 -9 35 10 49 25 23 25 -11 0 -27 -7
-34 -16z"/>
<path d="M2470 1036 c0 -2 8 -10 18 -17 15 -13 16 -12 3 4 -13 16 -21 21 -21
13z"/>
<path d="M2955 1030 c-8 -13 5 -13 25 0 13 8 13 10 -2 10 -9 0 -20 -4 -23 -10z"/>
<path d="M3527 1019 c3 -10 12 -19 19 -19 20 0 17 13 -5 27 -16 10 -18 9 -14
-8z"/>
<path d="M2992 1017 c-8 -10 -6 -13 11 -15 36 -4 88 8 82 19 -9 14 -81 11 -93
-4z"/>
<path d="M3114 1013 c20 -24 46 -31 46 -13 0 6 -8 10 -18 10 -10 0 -24 6 -32
13 -8 6 -6 2 4 -10z"/>
<path d="M3575 1010 c-3 -5 0 -10 7 -11 7 0 4 -5 -7 -10 -19 -8 -19 -9 -1 -6
11 1 20 10 22 20 2 18 -11 23 -21 7z"/>
<path d="M1379 989 c-10 -6 -7 -9 14 -9 29 0 35 5 14 13 -8 3 -20 1 -28 -4z"/>
<path d="M2277 993 c-13 -13 -7 -20 16 -17 12 1 29 3 37 4 11 1 9 4 -5 10 -25
11 -40 12 -48 3z"/>
<path d="M3090 990 c-9 -6 -10 -10 -3 -10 6 0 15 5 18 10 8 12 4 12 -15 0z"/>
<path d="M3451 981 c-8 -6 -9 -11 -3 -15 6 -3 14 -1 17 5 9 14 2 20 -14 10z"/>
<path d="M1442 969 c2 -6 8 -10 13 -10 5 0 11 4 13 10 2 6 -4 11 -13 11 -9 0
-15 -5 -13 -11z"/>
<path d="M3038 973 c7 -3 16 -2 19 1 4 3 -2 6 -13 5 -11 0 -14 -3 -6 -6z"/>
<path d="M3390 969 c0 -5 5 -7 10 -4 6 3 10 8 10 11 0 2 -4 4 -10 4 -5 0 -10
-5 -10 -11z"/>
<path d="M3070 959 c0 -5 6 -8 13 -6 6 1 11 -4 10 -10 -2 -9 8 -12 30 -10 17
2 38 -1 45 -6 8 -6 12 -6 12 1 0 5 10 8 23 5 21 -5 21 -5 4 9 -11 8 -36 13
-58 12 -21 -1 -39 1 -39 5 0 4 -9 7 -20 8 -11 1 -20 -2 -20 -8z"/>
<path d="M1277 941 c-3 -14 2 -21 17 -25 33 -9 37 -7 34 12 -6 34 -43 44 -51
13z"/>
<path d="M1730 950 c0 -5 5 -10 11 -10 5 0 7 5 4 10 -3 6 -8 10 -11 10 -2 0
-4 -4 -4 -10z"/>
<path d="M3548 949 c-10 -5 -18 -17 -18 -24 0 -8 -5 -15 -11 -15 -6 0 -17 -7
-25 -15 -14 -13 -13 -15 4 -15 11 0 29 17 45 40 14 22 25 40 24 40 -1 0 -10
-5 -19 -11z"/>
<path d="M2798 933 c7 -3 16 -2 19 1 4 3 -2 6 -13 5 -11 0 -14 -3 -6 -6z"/>
<path d="M3348 918 c-14 -14 -15 -18 -4 -18 8 0 17 7 20 16 9 23 4 24 -16 2z"/>
<path d="M1585 904 c-9 -10 -14 -25 -12 -36 4 -15 1 -18 -13 -13 -10 3 -21 1
-25 -5 -3 -5 0 -10 8 -10 15 0 32 -29 22 -38 -2 -3 -11 1 -20 8 -14 11 -19 7
-16 -12 2 -15 -37 -8 -43 7 -3 9 -12 12 -22 8 -16 -6 -16 -7 0 -18 9 -7 16
-18 16 -26 0 -12 -2 -12 -9 0 -7 11 -10 7 -14 -15 -4 -27 -5 -28 -12 -6 -9 26
-13 27 -40 5 -16 -13 -17 -15 -2 -10 9 4 17 3 17 -2 0 -16 -26 -30 -79 -44
-29 -7 -56 -18 -59 -24 -4 -6 -18 -13 -32 -14 -18 -3 -24 -9 -22 -23 2 -12 -1
-16 -10 -11 -7 3 -4 -1 6 -9 34 -28 61 -17 34 13 -11 11 -10 13 2 9 9 -3 24 0
34 8 11 7 23 11 29 7 5 -3 13 0 17 7 6 10 16 7 39 -13 19 -16 38 -24 48 -20 9
4 22 -2 32 -14 21 -27 61 -40 61 -19 0 8 8 17 18 19 9 3 3 5 -15 6 -21 1 -36
8 -42 20 -6 10 -21 21 -34 24 -27 7 -35 47 -9 47 9 0 32 13 51 29 31 26 35 27
61 14 29 -14 44 -38 34 -54 -3 -5 2 -9 10 -9 9 0 16 7 16 15 0 8 -4 15 -8 15
-4 0 -14 16 -20 35 -11 29 -11 38 4 60 9 14 13 25 9 25 -4 0 -2 7 5 15 10 12
10 15 -4 15 -9 0 -16 5 -16 10 0 6 7 10 15 10 8 0 15 4 15 9 0 5 8 12 18 14
13 4 12 5 -5 6 -12 0 -29 -6 -38 -15z m-175 -240 c0 -8 -4 -12 -10 -9 -5 3
-10 10 -10 16 0 5 5 9 10 9 6 0 10 -7 10 -16z"/>
<path d="M3115 910 c-20 -5 -24 -8 -10 -9 17 -1 17 -3 5 -11 -12 -7 -8 -11 18
-16 35 -7 43 -32 18 -57 -12 -11 -11 -15 6 -26 24 -15 35 -7 18 14 -10 12 -9
15 6 16 71 4 69 3 66 33 -3 26 -1 28 12 17 11 -9 16 -10 16 -2 0 6 -4 11 -10
11 -5 0 -10 5 -10 11 0 6 7 8 18 4 13 -5 14 -4 5 6 -10 9 -15 10 -27 0 -10 -8
-16 -9 -21 -1 -3 5 -14 10 -23 9 -11 0 -12 -3 -4 -6 23 -9 12 -20 -24 -21 -31
-1 -34 1 -29 18 4 11 5 19 3 19 -2 -1 -16 -5 -33 -9z m85 -64 c0 -11 -19 -15
-25 -6 -3 5 1 10 9 10 9 0 16 -2 16 -4z"/>
<path d="M1655 890 c-28 -7 -28 -8 -5 -9 14 0 32 4 40 9 17 11 8 11 -35 0z"/>
<path d="M1728 893 c7 -3 16 -2 19 1 4 3 -2 6 -13 5 -11 0 -14 -3 -6 -6z"/>
<path d="M2895 890 c-3 -5 -1 -10 4 -10 6 0 11 5 11 10 0 6 -2 10 -4 10 -3 0
-8 -4 -11 -10z"/>
<path d="M3425 890 c-3 -5 -2 -10 4 -10 5 0 13 5 16 10 3 6 2 10 -4 10 -5 0
-13 -4 -16 -10z"/>
<path d="M2768 883 c7 -3 16 -2 19 1 4 3 -2 6 -13 5 -11 0 -14 -3 -6 -6z"/>
<path d="M1262 856 c-16 -18 -16 -19 3 -11 21 8 47 13 78 14 9 1 17 5 17 11 0
18 -80 6 -98 -14z"/>
<path d="M2985 870 c-3 -5 -1 -10 4 -10 6 0 11 5 11 10 0 6 -2 10 -4 10 -3 0
-8 -4 -11 -10z"/>
<path d="M1627 863 c-4 -3 -7 -15 -7 -26 0 -18 15 -16 15 1 0 4 4 13 8 20 8
12 -5 17 -16 5z"/>
<path d="M2940 850 c0 -5 7 -7 15 -4 8 4 15 8 15 10 0 2 -7 4 -15 4 -8 0 -15
-4 -15 -10z"/>
<path d="M1836 836 c3 -8 12 -17 20 -20 12 -4 12 -2 4 14 -12 23 -32 27 -24 6z"/>
<path d="M3280 840 c0 -5 5 -10 11 -10 5 0 7 5 4 10 -3 6 -8 10 -11 10 -2 0
-4 -4 -4 -10z"/>
<path d="M3440 826 c7 -7 13 -7 20 0 6 6 3 10 -10 10 -13 0 -16 -4 -10 -10z"/>
<path d="M3370 820 c0 -7 24 -20 36 -20 13 0 1 19 -16 23 -11 3 -20 2 -20 -3z"/>
<path d="M1882 794 c-1 -15 2 -22 8 -19 12 7 13 32 2 39 -4 2 -9 -7 -10 -20z"/>
<path d="M2858 795 c2 -14 8 -25 12 -25 4 0 5 11 2 25 -2 14 -8 25 -12 25 -4
0 -5 -11 -2 -25z"/>
<path d="M3235 811 c-6 -11 9 -23 19 -14 9 9 7 23 -3 23 -6 0 -12 -4 -16 -9z"/>
<path d="M1595 800 c-3 -5 -2 -18 4 -27 7 -14 9 -12 8 10 -2 30 -3 31 -12 17z"/>
<path d="M2900 798 c0 -8 7 -15 15 -15 18 0 15 19 -3 25 -7 2 -12 -3 -12 -10z"/>
<path d="M822 780 c7 -10 15 -17 19 -14 4 2 12 -3 19 -11 22 -27 32 -16 12 13
-24 32 -70 44 -50 12z"/>
<path d="M2020 795 c0 -5 5 -17 10 -25 5 -8 10 -10 10 -5 0 6 -5 17 -10 25 -5
8 -10 11 -10 5z"/>
<path d="M2990 786 c0 -8 51 -13 56 -5 3 5 -9 9 -25 9 -17 0 -31 -2 -31 -4z"/>
<path d="M2956 771 c-3 -5 1 -12 10 -15 27 -10 36 -7 20 9 -17 17 -23 18 -30
6z"/>
<path d="M2920 760 c0 -5 5 -10 11 -10 5 0 7 5 4 10 -3 6 -8 10 -11 10 -2 0
-4 -4 -4 -10z"/>
<path d="M2070 733 c0 -13 5 -23 10 -23 13 0 13 11 0 30 -8 12 -10 11 -10 -7z"/>
<path d="M2985 730 c-3 -6 1 -7 10 -4 8 4 26 -1 40 -10 14 -9 25 -13 25 -8 0
9 -43 32 -60 32 -5 0 -12 -4 -15 -10z"/>
<path d="M3287 729 c-15 -9 -16 -13 -5 -26 11 -14 11 -15 -7 -6 -15 8 -23 8
-31 -1 -16 -17 18 -58 40 -50 9 3 24 3 34 -1 16 -7 15 -8 -3 -15 -14 -6 -15
-9 -4 -9 8 -1 30 15 49 34 28 29 31 37 20 50 -7 8 -21 15 -31 15 -11 0 -19 5
-19 10 0 13 -20 12 -43 -1z m68 -39 c-3 -5 -10 -10 -16 -10 -5 0 -9 5 -9 10 0
6 7 10 16 10 8 0 12 -4 9 -10z"/>
<path d="M870 713 c0 -13 5 -23 10 -23 13 0 13 11 0 30 -8 12 -10 11 -10 -7z"/>
<path d="M2583 717 c-35 -15 -27 -27 17 -27 22 0 40 5 40 10 0 6 -6 10 -14 10
-8 0 -16 4 -18 9 -1 4 -13 4 -25 -2z"/>
<path d="M2660 720 c0 -5 5 -10 11 -10 5 0 7 5 4 10 -3 6 -8 10 -11 10 -2 0
-4 -4 -4 -10z"/>
<path d="M2940 714 c0 -3 12 -20 27 -38 15 -17 24 -23 20 -13 -4 10 -7 22 -7
25 0 4 -9 13 -20 20 -11 7 -20 9 -20 6z"/>
<path d="M1998 692 c-11 -13 -11 -14 2 -7 8 5 23 8 33 7 9 -2 17 1 17 5 0 16
-38 12 -52 -5z"/>
<path d="M2076 700 c-15 -5 -16 -9 -7 -15 11 -6 11 -9 0 -16 -12 -7 -11 -9 0
-9 11 0 10 -4 -4 -13 -17 -13 -17 -14 2 -19 16 -4 19 -1 18 17 -5 39 9 49 40
29 28 -18 28 -18 14 3 -15 25 -36 33 -63 23z"/>
<path d="M2707 699 c7 -7 15 -10 18 -7 3 3 -2 9 -12 12 -14 6 -15 5 -6 -5z"/>
<path d="M2848 703 c7 -3 16 -2 19 1 4 3 -2 6 -13 5 -11 0 -14 -3 -6 -6z"/>
<path d="M1225 690 c3 -5 8 -10 11 -10 2 0 4 5 4 10 0 6 -5 10 -11 10 -5 0 -7
-4 -4 -10z"/>
<path d="M2790 689 c0 -5 5 -7 10 -4 6 3 10 8 10 11 0 2 -4 4 -10 4 -5 0 -10
-5 -10 -11z"/>
<path d="M3000 691 c0 -6 4 -13 10 -16 6 -3 7 1 4 9 -7 18 -14 21 -14 7z"/>
<path d="M2630 674 c-22 -8 -28 -13 -15 -13 11 0 31 6 45 14 31 17 17 17 -30
-1z"/>
<path d="M2865 680 c-3 -5 1 -10 10 -10 9 0 13 5 10 10 -3 6 -8 10 -10 10 -2
0 -7 -4 -10 -10z"/>
<path d="M1610 670 c-9 -6 -10 -10 -3 -10 6 0 15 5 18 10 8 12 4 12 -15 0z"/>
<path d="M2358 663 c7 -3 16 -2 19 1 4 3 -2 6 -13 5 -11 0 -14 -3 -6 -6z"/>
<path d="M1885 649 c-9 -14 -2 -20 14 -10 8 6 9 11 3 15 -6 3 -14 1 -17 -5z"/>
<path d="M2940 652 c0 -5 9 -18 20 -30 l20 -22 -20 -12 c-28 -18 -25 -31 4
-24 14 3 28 1 31 -5 4 -5 19 -9 33 -8 15 1 40 -2 55 -6 17 -4 33 -3 38 2 7 7
2 9 -14 6 -14 -3 -28 0 -31 6 -4 6 -1 9 7 5 8 -3 19 1 25 9 10 12 6 14 -20 12
-18 -1 -43 -7 -55 -13 -27 -15 -33 -15 -33 -1 0 6 10 19 22 29 22 17 22 18 3
36 -17 17 -18 17 -12 2 8 -23 0 -23 -40 2 -18 11 -33 16 -33 12z"/>
<path d="M1324 628 c-11 -12 -14 -18 -7 -15 6 4 14 3 18 -3 3 -5 -1 -10 -9
-10 -23 0 -19 -17 5 -23 29 -8 87 3 92 17 3 6 -3 12 -13 12 -10 0 -16 -4 -14
-8 3 -4 -2 -5 -10 -2 -9 3 -13 10 -10 15 3 5 -2 9 -11 9 -9 0 -14 4 -10 9 12
20 -13 19 -31 -1z"/>
<path d="M2679 650 c0 -3 -2 -12 -4 -20 -2 -11 7 -15 31 -16 23 0 34 4 34 13
0 10 -7 12 -21 8 -14 -5 -25 -2 -30 6 -5 8 -9 12 -10 9z"/>
<path d="M1921 627 c-9 -12 -9 -15 1 -14 37 1 48 -4 48 -24 0 -17 3 -19 14
-10 21 18 8 53 -16 45 -12 -3 -24 -1 -28 5 -5 9 -10 8 -19 -2z"/>
<path d="M2370 630 c0 -6 7 -10 15 -10 8 0 15 2 15 4 0 2 -7 6 -15 10 -8 3
-15 1 -15 -4z"/>
<path d="M2895 630 c-3 -5 -2 -10 4 -10 6 0 8 -8 4 -17 -6 -16 -4 -16 15 1 12
10 19 23 16 27 -7 12 -31 11 -39 -1z"/>
<path d="M1587 610 c-3 -13 0 -20 8 -20 21 0 27 16 11 29 -11 9 -15 7 -19 -9z"/>
<path d="M1630 619 c0 -5 5 -7 10 -4 6 3 10 8 10 11 0 2 -4 4 -10 4 -5 0 -10
-5 -10 -11z"/>
<path d="M2570 604 c22 -25 51 -37 63 -25 7 7 0 15 -26 26 -46 19 -53 19 -37
-1z"/>
<path d="M2130 606 c0 -2 7 -7 16 -10 8 -3 12 -2 9 4 -6 10 -25 14 -25 6z"/>
<path d="M2772 601 c-10 -6 -10 -10 3 -21 13 -11 15 -9 15 9 0 24 0 24 -18 12z"/>
<path d="M2088 593 c7 -3 16 -2 19 1 4 3 -2 6 -13 5 -11 0 -14 -3 -6 -6z"/>
<path d="M2667 578 c2 -5 -5 -8 -16 -8 -12 0 -21 -5 -21 -11 0 -6 9 -9 20 -6
11 3 20 0 20 -6 0 -6 3 -7 8 -3 4 4 7 13 7 19 0 7 11 11 24 9 14 -2 21 0 17 7
-4 5 -20 9 -35 8 -16 -1 -27 -5 -24 -9z"/>
<path d="M2833 575 c-6 -7 -9 -15 -6 -18 7 -8 53 14 53 26 0 5 -6 4 -14 -2 -8
-7 -16 -8 -18 -2 -1 5 -8 3 -15 -4z"/>
<path d="M2750 570 c0 -5 5 -10 11 -10 5 0 7 5 4 10 -3 6 -8 10 -11 10 -2 0
-4 -4 -4 -10z"/>
<path d="M1380 559 c0 -8 26 -19 44 -19 7 0 13 7 13 15 0 10 -9 14 -29 13 -15
-1 -28 -5 -28 -9z"/>
<path d="M3145 560 c-3 -5 -1 -10 4 -10 6 0 11 5 11 10 0 6 -2 10 -4 10 -3 0
-8 -4 -11 -10z"/>
<path d="M1907 542 c-10 -13 -9 -14 10 -4 16 9 22 9 26 -1 3 -9 9 -8 21 4 16
14 15 16 -14 16 -17 0 -36 -7 -43 -15z"/>
<path d="M1990 545 c-15 -18 -5 -35 23 -35 20 0 20 1 2 13 -10 8 -15 19 -11
25 10 17 1 15 -14 -3z"/>
<path d="M2081 544 c0 -11 3 -14 6 -6 3 7 2 16 -1 19 -3 4 -6 -2 -5 -13z"/>
<path d="M2600 541 c6 -12 17 -21 25 -21 21 0 19 5 -11 25 -25 16 -25 16 -14
-4z"/>
<path d="M1455 540 c-3 -5 3 -10 15 -10 12 0 18 5 15 10 -3 6 -10 10 -15 10
-5 0 -12 -4 -15 -10z"/>
<path d="M1385 527 c23 -19 45 -22 45 -7 0 6 -6 10 -14 10 -8 0 -23 3 -33 6
-16 6 -16 5 2 -9z"/>
<path d="M1768 533 c7 -3 16 -2 19 1 4 3 -2 6 -13 5 -11 0 -14 -3 -6 -6z"/>
<path d="M2250 530 c0 -5 -7 -7 -15 -4 -9 4 -15 0 -15 -9 0 -25 15 -28 37 -7
12 10 24 16 27 13 3 -4 6 -1 6 5 0 7 -9 12 -20 12 -11 0 -20 -4 -20 -10z"/>
<path d="M1810 521 c0 -5 9 -11 21 -14 16 -4 18 -3 8 9 -13 16 -29 19 -29 5z"/>
<path d="M2304 515 c-5 -6 -10 -15 -11 -20 -1 -6 -4 -17 -8 -26 -4 -11 0 -18
14 -22 12 -3 22 1 25 10 4 9 13 12 25 8 11 -3 22 -1 26 5 3 5 19 10 34 10 16
0 34 6 40 14 10 12 8 14 -13 12 -14 -2 -23 1 -20 5 8 13 -20 11 -34 -3 -7 -7
-12 -8 -12 -4 0 5 -7 2 -16 -5 -15 -12 -16 -11 -10 8 6 17 3 22 -12 20 -10 0
-23 -6 -28 -12z"/>
<path d="M2706 513 c-6 -15 -9 -15 -17 -3 -9 13 -10 12 -5 -2 3 -10 1 -20 -4
-23 -6 -4 -10 -10 -10 -16 0 -5 9 -4 19 3 21 13 46 58 32 58 -5 0 -12 -8 -15
-17z"/>
<path d="M1505 510 c-4 -6 7 -10 27 -10 25 0 29 3 18 10 -19 13 -37 13 -45 0z"/>
<path d="M1936 494 c-21 -21 -20 -37 4 -52 25 -15 27 -4 3 13 -17 12 -17 14 1
34 22 24 15 29 -8 5z"/>
<path d="M3120 500 c0 -5 -7 -7 -15 -4 -8 4 -15 2 -15 -3 0 -5 -16 -7 -35 -5
-21 3 -35 0 -35 -7 0 -6 7 -11 15 -11 8 0 15 -7 15 -15 0 -17 16 -21 22 -5 2
6 14 4 30 -4 23 -12 28 -12 41 2 8 10 12 23 10 30 -3 6 1 12 9 12 10 0 9 3 -2
10 -19 13 -40 13 -40 0z"/>
<path d="M1688 468 c9 -9 15 -9 24 0 9 9 7 12 -12 12 -19 0 -21 -3 -12 -12z"/>
<path d="M1770 460 c13 -23 20 -26 20 -6 0 8 -7 16 -15 20 -13 4 -14 2 -5 -14z"/>
<path d="M1830 470 c0 -6 4 -9 9 -6 5 4 12 1 14 -4 3 -6 4 -5 3 2 -3 15 -26
23 -26 8z"/>
<path d="M2620 456 c0 -9 5 -16 10 -16 6 0 10 4 10 9 0 6 -4 13 -10 16 -5 3
-10 -1 -10 -9z"/>
<path d="M2704 430 c1 -29 30 -48 42 -29 3 5 0 9 -5 9 -6 0 -10 3 -10 8 3 18
-2 30 -15 35 -10 4 -13 -3 -12 -23z"/>
<path d="M1980 446 c0 -2 7 -7 16 -10 8 -3 12 -2 9 4 -6 10 -25 14 -25 6z"/>
<path d="M2462 442 c-18 -2 -32 -8 -30 -14 4 -11 88 -18 88 -7 0 14 -27 24
-58 21z"/>
<path d="M2547 427 c-15 -23 -14 -23 14 -19 33 5 35 8 15 27 -12 12 -16 11
-29 -8z"/>
<path d="M1556 425 c10 -8 27 -15 37 -15 10 0 29 -11 42 -25 14 -13 25 -20 25
-15 0 17 -39 50 -59 50 -11 0 -23 5 -26 10 -3 6 -14 10 -23 10 -13 0 -13 -2 4
-15z"/>
<path d="M1648 433 c7 -3 16 -2 19 1 4 3 -2 6 -13 5 -11 0 -14 -3 -6 -6z"/>
<path d="M1694 428 c-4 -6 -3 -8 4 -4 12 7 45 -22 37 -34 -3 -5 1 -10 7 -13 9
-3 7 -10 -7 -21 -19 -15 -19 -15 11 -10 18 3 34 1 38 -5 4 -5 13 -8 21 -4 8 3
15 0 15 -7 0 -6 -4 -8 -10 -5 -5 3 -10 -1 -10 -9 0 -9 -4 -16 -10 -16 -5 0
-10 -9 -10 -20 0 -11 5 -20 10 -20 6 0 10 -4 10 -9 0 -4 -11 -6 -25 -3 -21 3
-24 1 -19 -13 4 -11 13 -15 25 -11 11 3 28 9 39 12 12 4 20 2 20 -5 0 -7 9 -9
26 -5 19 5 25 4 20 -5 -4 -6 -3 -11 3 -11 5 0 13 5 16 10 9 14 58 12 74 -2 11
-11 12 -9 6 11 -5 17 -4 21 4 16 7 -4 23 5 37 20 18 20 30 25 47 20 17 -6 19
-5 10 5 -18 20 -123 51 -141 42 -10 -5 -29 -7 -44 -6 -20 2 -28 -2 -28 -13 0
-10 6 -13 16 -9 9 4 22 2 28 -2 6 -5 24 -12 39 -16 31 -7 29 -21 -3 -29 -18
-5 -19 -3 -9 10 11 13 7 14 -31 12 -36 -3 -45 0 -48 14 -2 9 -10 17 -18 17 -9
0 -14 10 -14 28 0 28 -15 52 -33 52 -5 0 -4 -7 3 -15 11 -13 10 -14 -7 -8 -11
5 -33 23 -48 41 -29 34 -40 39 -51 20z m326 -133 c-7 -8 -16 -12 -21 -9 -16 9
-10 20 12 21 17 2 18 -1 9 -12z"/>
<path d="M2827 410 c18 -17 39 -30 48 -30 12 0 15 -6 10 -20 -5 -16 -2 -20 14
-20 15 0 19 -5 15 -17 -5 -15 -4 -15 4 -3 6 8 9 17 6 22 -3 4 8 1 22 -7 30
-15 60 -6 71 21 3 7 9 12 13 9 5 -3 11 -1 14 4 6 9 -84 25 -93 15 -3 -3 1 -9
9 -14 12 -8 9 -10 -11 -10 -14 0 -35 9 -47 20 -12 11 -26 20 -32 20 -15 0 -41
26 -33 34 4 3 -5 6 -18 6 -24 0 -24 -1 8 -30z"/>
<path d="M1780 420 c0 -5 5 -10 11 -10 5 0 7 5 4 10 -3 6 -8 10 -11 10 -2 0
-4 -4 -4 -10z"/>
<path d="M2625 420 c3 -5 13 -10 21 -10 8 0 14 -7 14 -15 0 -8 5 -15 10 -15
14 0 13 23 -2 38 -14 14 -52 16 -43 2z"/>
<path d="M3055 410 c3 -5 13 -10 21 -10 8 0 12 5 9 10 -3 6 -13 10 -21 10 -8
0 -12 -4 -9 -10z"/>
<path d="M2760 400 c0 -5 7 -10 15 -10 8 0 12 -6 9 -13 -6 -16 21 -41 35 -33
11 7 3 35 -15 54 -15 14 -44 16 -44 2z"/>
<path d="M1145 390 c-3 -6 1 -7 9 -4 18 7 21 14 7 14 -6 0 -13 -4 -16 -10z"/>
<path d="M1678 393 c7 -3 16 -2 19 1 4 3 -2 6 -13 5 -11 0 -14 -3 -6 -6z"/>
<path d="M2340 389 c0 -5 -4 -7 -10 -4 -5 3 -10 2 -10 -4 0 -5 5 -13 10 -16 6
-3 10 -1 10 4 0 6 7 11 15 11 10 0 12 -6 8 -17 -6 -16 -5 -16 10 -4 16 13 16
14 0 27 -22 16 -33 17 -33 3z"/>
<path d="M2715 359 c6 -47 20 -55 20 -12 0 20 -5 38 -12 40 -8 3 -10 -6 -8
-28z"/>
<path d="M1480 370 c-8 -5 -12 -12 -9 -15 4 -3 12 1 19 10 14 17 11 19 -10 5z"/>
<path d="M2276 371 c-3 -4 1 -17 8 -27 13 -17 14 -17 9 9 -6 29 -9 32 -17 18z"/>
<path d="M2618 358 c4 -17 2 -20 -11 -15 -9 3 -19 2 -22 -3 -3 -5 16 -16 42
-24 26 -8 44 -15 39 -15 -11 -1 25 -30 37 -31 4 0 7 9 7 21 0 13 -4 18 -12 13
-8 -5 -9 0 -6 14 4 14 2 20 -5 15 -6 -4 -8 2 -5 15 4 12 3 22 -2 22 -4 0 -10
-9 -13 -20 -7 -28 -27 -25 -27 5 0 15 -6 25 -14 25 -10 0 -12 -7 -8 -22z"/>
<path d="M2460 362 c0 -6 9 -12 20 -15 11 -3 20 -3 20 -1 0 2 -9 8 -20 14 -11
6 -20 7 -20 2z"/>
<path d="M965 351 c-3 -5 -1 -12 5 -16 5 -3 10 1 10 9 0 18 -6 21 -15 7z"/>
<path d="M1365 339 c7 -11 35 -12 35 -1 0 4 -9 8 -20 9 -11 1 -18 -2 -15 -8z"/>
<path d="M2390 335 c0 -17 9 -19 28 -6 11 7 10 10 -3 15 -23 9 -25 8 -25 -9z"/>
<path d="M1676 311 c8 -16 26 -37 40 -46 25 -16 25 -16 13 7 -6 13 -18 27 -25
31 -8 4 -14 15 -14 22 0 8 -6 15 -14 15 -12 0 -12 -4 0 -29z"/>
<path d="M2320 330 c-8 -6 -13 -10 -10 -11 44 -7 53 -8 45 -1 -5 4 -12 10 -15
14 -3 4 -12 3 -20 -2z"/>
<path d="M2754 323 c-14 -45 -23 -60 -38 -62 -9 -1 -25 -2 -35 -3 -11 -1 -22
-12 -25 -24 -4 -17 -11 -20 -31 -16 -14 2 -25 8 -25 13 0 5 -5 9 -11 9 -8 0
-9 -4 0 -13 6 -8 9 -17 6 -20 -3 -4 -2 -5 1 -2 4 2 13 -3 22 -11 11 -12 17
-12 22 -3 10 16 33 1 26 -18 -3 -8 -1 -11 5 -8 5 4 7 16 3 27 -4 14 -3 18 6
13 7 -4 13 1 17 13 3 13 11 18 19 15 8 -3 14 0 14 6 0 6 4 11 10 11 5 0 7 -6
4 -13 -3 -8 4 -14 18 -15 37 -3 68 7 68 24 0 12 -4 13 -20 4 -16 -9 -20 -8
-21 7 -1 10 -1 22 0 27 1 5 -6 6 -15 2 -13 -5 -16 -1 -12 24 5 33 0 40 -8 13z"/>
<path d="M2257 323 c-12 -11 -8 -23 8 -23 8 0 15 -4 15 -10 0 -5 -7 -10 -15
-10 -8 0 -15 -5 -15 -11 0 -6 9 -9 20 -6 22 6 27 -12 8 -31 -17 -17 -2 -28 17
-12 10 8 29 10 53 7 34 -6 35 -5 18 8 -11 8 -25 15 -32 15 -21 0 -35 25 -21
40 10 10 9 12 -5 7 -10 -4 -18 1 -21 14 -5 19 -18 25 -30 12z"/>
<path d="M1186 295 c-3 -8 -1 -15 4 -15 6 0 10 7 10 15 0 8 -2 15 -4 15 -2 0
-6 -7 -10 -15z"/>
<path d="M1636 302 c-3 -6 3 -12 15 -15 12 -3 19 -1 16 6 -5 15 -24 20 -31 9z"/>
<path d="M1540 290 c0 -5 9 -14 21 -20 19 -11 20 -10 9 9 -11 22 -30 29 -30
11z"/>
<path d="M2448 288 c5 -5 16 -8 23 -6 8 3 3 7 -10 11 -17 4 -21 3 -13 -5z"/>
<path d="M2340 280 c-13 -8 -13 -10 2 -10 9 0 20 5 23 10 8 13 -5 13 -25 0z"/>
<path d="M2597 284 c-8 -8 1 -24 14 -24 5 0 9 7 9 15 0 15 -12 20 -23 9z"/>
<path d="M2375 270 c-3 -5 1 -10 9 -10 9 0 16 5 16 10 0 6 -4 10 -9 10 -6 0
-13 -4 -16 -10z"/>
<path d="M2030 259 c0 -5 5 -7 10 -4 6 3 10 8 10 11 0 2 -4 4 -10 4 -5 0 -10
-5 -10 -11z"/>
<path d="M2068 236 c13 -7 29 -23 35 -37 7 -13 23 -26 37 -28 14 -1 37 -12 52
-23 16 -11 28 -16 28 -11 0 4 6 1 13 -8 15 -19 57 -35 57 -20 0 5 -7 16 -15
25 -23 23 -18 29 20 24 25 -3 31 -1 24 8 -5 6 -20 9 -34 6 -14 -2 -25 0 -25 6
0 5 -9 12 -21 15 -16 4 -19 11 -14 26 5 17 2 21 -17 21 -18 0 -20 -2 -8 -10
12 -8 13 -13 3 -29 -10 -15 -10 -21 0 -24 7 -2 8 -8 4 -13 -5 -5 -14 -1 -22 9
-10 13 -20 17 -37 12 -18 -5 -20 -4 -8 4 13 9 12 12 -7 17 -12 3 -25 15 -28
25 -4 13 -15 19 -33 19 l-27 -1 23 -13z"/>
<path d="M2120 240 c0 -5 5 -10 10 -10 6 0 10 5 10 10 0 6 -4 10 -10 10 -5 0
-10 -4 -10 -10z"/>
<path d="M1324 225 c11 -9 27 -13 35 -10 9 2 22 1 30 -4 10 -7 8 -9 -10 -10
-51 -1 -79 -6 -78 -16 1 -5 5 -9 9 -8 4 1 11 -5 15 -15 3 -9 3 -14 0 -10 -9 8
-65 -11 -65 -23 0 -5 7 -9 15 -9 8 0 15 4 15 8 0 14 61 1 67 -14 3 -8 10 -14
15 -14 6 0 8 6 5 14 -3 7 4 21 14 30 11 9 17 21 14 26 -3 5 4 11 15 15 46 15
14 40 -60 48 -50 6 -53 5 -36 -8z m40 -66 c-3 -5 -10 -7 -15 -3 -5 3 -7 10 -3
15 3 5 10 7 15 3 5 -3 7 -10 3 -15z"/>
<path d="M2407 220 c-3 -12 0 -20 8 -20 8 0 11 8 8 20 -3 11 -7 20 -8 20 -1 0
-5 -9 -8 -20z"/>
<path d="M1855 210 c-3 -5 -1 -10 4 -10 6 0 11 5 11 10 0 6 -2 10 -4 10 -3 0
-8 -4 -11 -10z"/>
<path d="M1772 203 c-6 -2 -10 -8 -7 -13 6 -10 45 -1 45 11 0 10 -17 11 -38 2z"/>
<path d="M2456 194 c-9 -23 -8 -24 14 -24 11 0 20 -4 20 -10 0 -5 5 -10 12
-10 9 0 9 3 0 12 -7 7 -12 20 -12 30 0 22 -26 24 -34 2z"/>
<path d="M2350 174 c-9 -10 -9 -14 -1 -14 6 0 11 5 11 11 0 8 5 8 15 -1 9 -7
15 -8 15 -2 0 17 -28 22 -40 6z"/>
<path d="M1866 161 c-20 -22 -15 -27 39 -35 31 -5 35 -4 18 3 -13 6 -23 19
-23 31 0 25 -12 26 -34 1z"/>
<path d="M2573 165 c0 -15 34 -31 45 -21 5 6 -26 35 -39 36 -3 0 -6 -7 -6 -15z"/>
<path d="M1201 161 c-9 -6 -10 -11 -2 -15 6 -4 11 -4 11 1 0 4 4 1 10 -7 11
-18 25 -7 17 15 -7 17 -16 19 -36 6z"/>
<path d="M2525 151 c-3 -5 2 -11 10 -15 8 -3 17 -1 20 3 3 5 -2 11 -10 15 -8
3 -17 1 -20 -3z"/>
<path d="M2415 140 c3 -5 10 -10 16 -10 5 0 9 5 9 10 0 6 -7 10 -16 10 -8 0
-12 -4 -9 -10z"/>
<path d="M1496 114 c-4 -10 4 -27 23 -46 23 -24 42 -32 100 -41 55 -8 74 -8
83 1 10 10 6 11 -18 6 -22 -4 -34 -1 -45 12 -13 16 -11 17 20 12 l33 -5 -23
18 c-27 21 -28 21 29 24 25 2 42 -1 42 -8 0 -5 3 -7 7 -4 3 4 -3 16 -15 27
-21 20 -42 26 -42 13 0 -10 -137 -9 -166 1 -15 5 -24 2 -28 -10z"/>
<path d="M1805 122 c-46 -8 -51 -13 -22 -28 19 -10 32 -12 40 -5 7 5 28 11 47
13 l35 3 -40 10 c-22 6 -49 9 -60 7z"/>
<path d="M2305 120 c-3 -5 -5 -10 -3 -11 28 -7 38 -5 38 7 0 16 -26 19 -35 4z"/>
<path d="M2400 120 c0 -5 5 -10 11 -10 5 0 7 5 4 10 -3 6 -8 10 -11 10 -2 0
-4 -4 -4 -10z"/>
<path d="M1972 101 c-11 -7 -11 -9 2 -14 10 -4 16 -1 16 8 0 17 -1 17 -18 6z"/>
<path d="M1427 93 c-11 -11 -8 -21 9 -27 13 -5 14 -4 6 7 -7 8 -9 17 -5 20 3
4 4 7 1 7 -2 0 -8 -3 -11 -7z"/>
<path d="M1833 83 c-17 -6 -17 -23 0 -23 7 0 24 -13 37 -30 20 -24 33 -29 68
-30 23 0 42 5 42 10 0 6 -4 10 -10 10 -5 0 -6 8 -3 17 5 13 2 15 -12 9 -21 -8
-85 11 -100 29 -5 7 -16 11 -22 8z"/>
<path d="M1890 86 c0 -2 7 -7 16 -10 8 -3 12 -2 9 4 -6 10 -25 14 -25 6z"/>
<path d="M2062 83 c-10 -4 -10 -8 -1 -19 6 -8 16 -11 22 -7 6 3 7 1 3 -6 -4
-6 0 -14 8 -17 9 -3 14 -9 12 -13 -3 -4 4 -8 15 -8 10 -1 19 5 19 12 0 11 6
12 24 6 27 -11 106 -3 106 11 0 15 -44 26 -101 26 -30 -1 -64 4 -74 9 -11 6
-26 8 -33 6z"/>
<path d="M1985 60 c-4 -6 8 -10 30 -10 33 0 35 -1 21 -16 -9 -8 -16 -16 -16
-18 0 -2 49 0 63 2 13 3 -19 31 -48 42 -33 13 -42 13 -50 0z"/>
<path d="M2325 60 c-11 -4 -24 -5 -30 -2 -6 3 -6 1 0 -6 7 -7 21 -9 40 -4 16
5 25 11 20 14 -6 3 -19 2 -30 -2z"/>
<path d="M1749 25 c18 -8 38 -15 45 -15 6 1 -4 7 -23 15 -18 8 -38 15 -45 15
-6 -1 4 -7 23 -15z"/>
</g>
</svg>
