<?xml version="1.0" standalone="no"?>
<!DOCTYPE svg PUBLIC "-//W3C//DTD SVG 20010904//EN"
 "http://www.w3.org/TR/2001/REC-SVG-20010904/DTD/svg10.dtd">
<svg version="1.0" xmlns="http://www.w3.org/2000/svg"
 width="354.000000pt" height="354.000000pt" viewBox="0 0 354.000000 354.000000"
 preserveAspectRatio="xMidYMid meet">
<metadata>
Created by potrace 1.11, written by Peter Selinger 2001-2013
</metadata>
<g transform="translate(0.000000,354.000000) scale(0.100000,-0.100000)"
fill="#000000" stroke="none">
<path d="M1655 3370 c-8 -24 -18 -25 -35 -5 -7 8 -16 15 -21 15 -9 0 -83 -108
-91 -131 -2 -7 -12 -7 -30 0 -20 7 -29 7 -35 -2 -27 -44 -17 -320 16 -425 19
-63 19 -64 0 -83 -10 -10 -19 -24 -19 -30 0 -5 -11 -35 -25 -64 -43 -95 -58
-152 -51 -198 11 -69 49 -141 90 -166 20 -13 36 -31 36 -40 0 -10 10 -26 22
-37 l21 -19 -17 27 c-10 15 -20 45 -22 65 -2 21 -7 61 -12 88 -6 29 -6 51 -1
53 5 2 9 10 9 19 0 10 6 12 20 8 14 -4 22 -1 27 12 4 10 11 21 17 25 6 4 0 8
-14 8 -14 0 -32 5 -40 10 -11 7 -6 10 20 10 47 0 80 -24 80 -58 1 -26 1 -26
16 -7 14 19 13 22 -21 53 -25 23 -42 31 -55 27 -30 -10 -24 13 8 27 25 12 146
16 185 6 29 -7 24 -23 -8 -26 -34 -3 -79 -60 -69 -87 9 -22 24 -19 24 5 0 17
3 19 19 10 28 -14 31 -13 28 13 -1 12 -9 25 -17 29 -8 4 9 7 38 7 33 1 51 -3
47 -9 -3 -5 -14 -10 -24 -10 -13 0 -18 -8 -18 -25 0 -27 4 -30 26 -16 10 7 20
2 33 -14 25 -32 23 -52 -8 -80 l-26 -24 20 -33 c20 -33 20 -34 3 -73 -14 -31
-31 -46 -72 -67 -30 -14 -64 -29 -76 -33 -23 -6 -70 13 -98 42 -17 16 -17 16
-11 -7 4 -14 10 -33 12 -42 3 -10 0 -26 -6 -38 -7 -13 -7 -20 0 -20 5 0 10 6
10 14 0 26 21 29 50 8 32 -24 85 -26 118 -4 21 13 27 13 62 -4 22 -10 44 -28
50 -39 15 -26 87 -72 125 -79 20 -4 16 -1 -13 10 -23 9 -47 25 -54 37 -6 12
-22 35 -34 50 -17 21 -24 41 -24 73 0 54 23 101 86 174 100 117 113 163 75
260 -24 59 -84 162 -114 197 -17 20 -18 27 -7 72 9 40 9 68 -4 149 -17 107
-26 134 -79 256 -39 86 -80 141 -114 151 -16 4 -23 1 -28 -15z m-88 -435 c12
-33 24 -68 28 -77 5 -12 -2 -21 -24 -33 -17 -8 -34 -16 -38 -16 -13 -1 -45
116 -50 183 l-6 68 35 -33 c22 -20 42 -55 55 -92z"/>
<path d="M822 3288 c-6 -6 -12 -24 -12 -40 0 -36 27 -51 68 -36 26 10 29 14
19 32 -5 12 -13 28 -17 36 -9 19 -42 24 -58 8z"/>
<path d="M1024 3207 c-6 -7 -9 -18 -6 -25 3 -9 -3 -10 -23 -2 l-27 10 31 -35
c17 -20 31 -40 31 -44 0 -5 9 -7 21 -4 15 4 19 12 17 32 -2 15 -8 25 -16 23
-8 -1 -11 2 -7 8 10 16 34 11 45 -10 11 -21 3 -71 -13 -81 -16 -11 3 -30 24
-24 26 9 24 -7 -4 -33 -30 -28 -32 -28 -35 5 -1 15 -8 32 -14 38 -7 5 -10 6
-6 1 4 -4 -2 -24 -12 -43 -10 -20 -24 -58 -31 -85 -14 -53 -14 -53 -81 -24
-47 20 -58 4 -16 -22 l32 -21 -2 -116 c-2 -93 -9 -144 -37 -257 -19 -78 -35
-152 -35 -164 0 -21 51 -74 70 -74 5 0 39 -22 75 -50 36 -27 68 -50 71 -50 2
0 -3 15 -13 33 -9 17 -16 36 -15 41 2 4 -3 15 -10 23 -18 22 -26 315 -15 539
5 84 14 107 69 172 15 18 35 48 43 67 16 39 17 39 48 25 21 -10 21 -10 -1 6
-21 16 -22 18 -6 35 10 11 26 19 36 19 11 0 16 5 13 11 -4 6 -14 8 -22 4 -19
-7 -53 22 -53 44 0 9 -5 23 -11 31 -8 11 -9 5 -4 -22 4 -24 2 -38 -5 -38 -5 0
-11 6 -11 13 -1 6 -2 18 -3 26 0 8 -8 17 -16 19 -13 5 -13 3 -1 -11 20 -24 -4
-22 -29 3 -23 23 -31 24 -46 7z m106 -96 c0 -11 -4 -23 -10 -26 -6 -4 -10 5
-10 19 0 14 5 26 10 26 6 0 10 -9 10 -19z m-95 -177 c-17 -57 -37 -82 -26 -32
8 34 28 78 36 78 2 0 -2 -21 -10 -46z"/>
<path d="M718 2519 c-38 -130 -56 -282 -37 -305 8 -9 54 -84 104 -165 71 -116
117 -177 214 -284 127 -140 191 -240 242 -375 43 -114 82 -196 114 -236 24
-29 37 -59 46 -105 33 -171 36 -173 236 -172 160 1 162 -1 87 -66 -34 -31 -36
-34 -23 -58 18 -33 34 -38 80 -26 34 9 41 8 60 -13 12 -13 21 -25 18 -27 -2
-2 -24 -11 -49 -21 -25 -10 -54 -22 -65 -26 -11 -5 -38 -12 -60 -15 -78 -14
-87 -16 -110 -31 -20 -13 -27 -12 -70 6 -26 11 -50 19 -52 16 -12 -12 24 -50
65 -70 26 -12 58 -28 72 -36 37 -21 63 -14 185 45 61 29 136 62 168 74 132 48
244 119 325 204 28 31 52 60 52 66 0 6 21 31 46 57 49 51 50 56 26 159 l-10
40 -1 -36 c-1 -31 -5 -38 -26 -43 -14 -4 -30 -17 -34 -29 -5 -13 -17 -29 -27
-37 -16 -14 -17 -13 -12 14 4 21 -5 56 -28 115 -41 101 -86 250 -79 262 3 4 1
18 -4 31 -22 56 -41 133 -41 167 0 21 -6 46 -14 56 -12 17 -18 18 -40 7 -23
-10 -26 -18 -26 -59 -1 -27 -5 -68 -10 -93 -7 -34 -6 -48 4 -55 7 -5 16 -26
19 -45 6 -32 2 -41 -47 -101 l-55 -66 -68 -6 c-161 -16 -332 -2 -390 31 -42
23 -74 102 -104 252 -5 25 -18 57 -29 72 -11 15 -20 32 -20 38 0 5 -8 10 -18
10 -10 0 -44 29 -76 65 -31 35 -72 72 -90 80 -61 29 -214 215 -321 388 -48 78
-64 97 -80 94 -19 -3 -20 1 -17 142 6 212 2 223 -30 110z m1347 -1372 c-4 -14
-15 -33 -26 -43 -18 -16 -19 -16 -19 10 0 17 9 35 23 46 27 22 30 20 22 -13z"/>
<path d="M1590 2345 c0 -15 21 -19 70 -15 32 3 38 9 20 20 -8 5 -21 5 -29 0
-8 -4 -25 -4 -38 1 -18 6 -23 5 -23 -6z"/>
<path d="M1335 1980 c3 -5 11 -10 16 -10 6 0 7 5 4 10 -3 6 -11 10 -16 10 -6
0 -7 -4 -4 -10z"/>
<path d="M1433 1963 c9 -2 23 -2 30 0 6 3 -1 5 -18 5 -16 0 -22 -2 -12 -5z"/>
<path d="M1884 1775 c8 -8 18 -15 22 -15 3 0 1 7 -6 15 -7 8 -17 15 -22 15 -5
0 -3 -7 6 -15z"/>
<path d="M1862 1646 c50 -26 50 -27 32 -47 -20 -22 -8 -25 20 -4 18 13 17 15
-10 39 -16 14 -38 25 -49 26 -16 0 -15 -3 7 -14z"/>
<path d="M1590 1639 c0 -5 5 -7 10 -4 6 3 10 8 10 11 0 2 -4 4 -10 4 -5 0 -10
-5 -10 -11z"/>
<path d="M1708 1643 c7 -3 16 -2 19 1 4 3 -2 6 -13 5 -11 0 -14 -3 -6 -6z"/>
<path d="M1566 1613 c-6 -14 -5 -15 5 -6 7 7 10 15 7 18 -3 3 -9 -2 -12 -12z"/>
<path d="M1270 866 c-6 -8 -10 -25 -8 -38 2 -18 9 -23 34 -24 22 0 54 -17 102
-52 76 -57 110 -91 80 -79 -28 10 -21 -8 7 -21 38 -17 70 -15 96 7 23 19 23
20 4 20 -47 1 -66 9 -158 70 -73 48 -97 69 -97 85 0 40 -36 59 -60 32z"/>
<path d="M732 726 c-23 -27 -32 -50 -40 -103 -21 -138 -32 -240 -32 -298 0
-33 -5 -108 -11 -167 -6 -59 -8 -119 -5 -133 6 -25 7 -25 110 -25 l105 0 -25
59 c-13 33 -30 100 -39 148 -8 48 -19 106 -25 128 -5 22 -10 69 -10 105 0 38
-5 71 -12 78 -16 16 4 16 22 0 8 -7 3 1 -12 17 -30 34 -52 106 -44 141 3 12
18 36 32 53 35 42 23 39 -14 -3z"/>
<path d="M2800 719 c9 -16 8 -25 -6 -40 -9 -10 -25 -19 -35 -19 -9 0 -44 -20
-76 -44 -189 -142 -475 -195 -978 -181 -126 3 -288 7 -360 9 -71 1 -170 5
-220 9 -49 3 -76 3 -60 -2 17 -4 29 -12 28 -18 -2 -7 -6 -107 -9 -222 l-7
-211 37 0 38 0 -8 195 c-6 163 -5 195 7 195 8 0 48 -7 89 -16 41 -9 128 -17
192 -18 65 -1 120 -5 124 -9 4 -4 -16 -55 -44 -114 -28 -60 -62 -136 -75 -170
l-26 -63 715 0 714 0 1 68 c10 455 -4 672 -44 672 -4 0 -3 -9 3 -21z"/>
</g>
</svg>
